<svg xmlns="http://www.w3.org/2000/svg" width="225.005" height="151.25" viewBox="0 0 225.005 151.25"><rect width="95.717" height="0.418" transform="translate(129.288 150.831)" fill="#3f3d56"/><rect width="95.717" height="0.418" transform="translate(121.966 144.764)" fill="#3f3d56"/><rect width="95.717" height="0.418" transform="translate(91.632 138.698)" fill="#3f3d56"/><path d="M183.489,248.114c-.58,0-1.167-.009-1.742-.027l.013-.418c.826.026,1.67.033,2.5.021l.006.418Q183.878,248.114,183.489,248.114Zm3.294-.1-.025-.418c.828-.049,1.666-.117,2.491-.2l.044.416c-.832.087-1.677.157-2.511.206Zm-7.551-.065c-.835-.064-1.678-.148-2.507-.249l.051-.415c.822.1,1.659.184,2.487.247Zm12.56-.46-.063-.413c.822-.125,1.651-.27,2.462-.431l.082.41c-.818.163-1.652.309-2.481.434Zm-17.559-.153c-.824-.14-1.657-.3-2.473-.478l.089-.409c.811.176,1.636.335,2.454.474Zm22.5-.829-.1-.406c.807-.2,1.619-.42,2.412-.656l.119.4c-.8.237-1.618.46-2.431.661Zm-27.421-.24c-.809-.215-1.622-.452-2.419-.7l.126-.4c.79.25,1.6.485,2.4.7Zm32.249-1.193-.137-.4c.783-.272,1.571-.567,2.342-.875l.155.389c-.776.311-1.57.607-2.36.882ZM164.5,244.75c-.785-.289-1.576-.6-2.349-.926l.162-.386c.767.323,1.551.632,2.331.919Zm41.73-1.541-.173-.381c.752-.342,1.508-.707,2.247-1.084l.19.373c-.745.381-1.506.748-2.264,1.092Zm4.477-2.288-.207-.363c.721-.412,1.441-.844,2.14-1.286l.223.353c-.7.445-1.429.881-2.156,1.3Zm4.252-2.69-.239-.343c.679-.475,1.357-.972,2.015-1.477l.255.332c-.662.509-1.346,1.01-2.03,1.488Zm-63.768-.589c-.675-.491-1.35-1-2.005-1.528l.261-.327c.65.519,1.32,1.029,1.99,1.516Zm67.76-2.478-.27-.32c.633-.534,1.263-1.091,1.873-1.655l.284.307c-.614.568-1.249,1.129-1.887,1.667Zm-71.7-.666c-.629-.551-1.254-1.124-1.857-1.7l.29-.3c.6.575,1.219,1.143,1.843,1.69Zm75.395-2.753-.3-.294c.584-.591,1.161-1.2,1.716-1.819l.311.28c-.559.62-1.141,1.237-1.729,1.833Zm-79.029-.735c-.577-.607-1.147-1.234-1.694-1.864l.316-.274c.543.625,1.108,1.248,1.681,1.85ZM226.02,228l-.323-.266c.527-.642,1.046-1.3,1.543-1.968l.335.25C227.075,226.687,226.551,227.354,226.02,228Zm-85.7-.794c-.518-.655-1.028-1.331-1.517-2.009l.34-.244c.484.673.991,1.344,1.505,1.994Zm88.72-3.242-.346-.235c.467-.687.924-1.394,1.358-2.1l.357.219C229.969,222.56,229.508,223.272,229.038,223.964Zm-91.66-.843c-.456-.7-.9-1.418-1.326-2.138l.36-.212c.421.714.864,1.428,1.316,2.122Zm94.3-3.454-.366-.2c.4-.727.792-1.473,1.16-2.219l.375.185C232.476,218.183,232.082,218.935,231.678,219.668Zm2.234-4.523-.383-.168c.333-.761.654-1.541.952-2.317l.391.15C234.571,213.591,234.248,214.377,233.912,215.144Zm-101.231-.9c-.321-.77-.628-1.557-.913-2.341l.393-.143c.283.778.588,1.559.906,2.323Zm103.04-3.811-.4-.132c.261-.787.507-1.591.732-2.39l.4.113c-.227.806-.475,1.616-.738,2.409Zm-104.759-.917c-.249-.8-.483-1.612-.7-2.421l.4-.106c.211.8.443,1.612.69,2.4Zm106.123-3.932-.408-.095c.187-.806.359-1.63.509-2.447l.411.076c-.152.824-.324,1.653-.513,2.466Zm-107.4-.94c-.174-.817-.332-1.65-.469-2.475l.413-.069c.136.819.293,1.645.466,2.456ZM238,200.629l-.415-.057c.113-.819.208-1.655.283-2.484l.417.038c-.076.835-.171,1.677-.285,2.5Zm-109.137-.955c-.1-.828-.18-1.672-.241-2.507l.417-.031c.061.829.141,1.666.239,2.488Zm109.592-4.06-.418-.019c.037-.829.056-1.67.056-2.5h.418c0,.836-.019,1.683-.057,2.518Zm-109.959-.963c-.014-.513-.022-1.036-.022-1.555q0-.483.008-.964l.418.007q-.008.477-.008.957c0,.515.007,1.035.021,1.544Zm.5-5.01-.418-.026c.052-.836.124-1.68.214-2.51l.416.045c-.089.823-.161,1.661-.213,2.491Zm108.823-2.553c-.084-.825-.2-1.227-.32-2.048l.414-.061c.122.827.227,1.459.311,2.29Zm-108.285-2.417-.413-.064c.128-.828.277-1.662.443-2.48l.41.083c-.164.812-.312,1.64-.439,2.461Zm107.543-2.1c-.16-.816-.34-1.638-.535-2.442l.407-.1c.2.81.379,1.638.539,2.46Zm-106.552-2.8-.406-.1c.2-.81.428-1.627.669-2.429l.4.12C130.95,178.158,130.727,178.969,130.526,179.773ZM235.9,177.72c-.233-.8-.488-1.6-.758-2.382l.4-.136c.272.79.529,1.6.764,2.4ZM131.966,174.98l-.395-.139c.278-.791.578-1.586.892-2.362l.388.157c-.312.77-.61,1.559-.886,2.344Zm102.3-1.986c-.305-.77-.632-1.543-.972-2.3l.382-.172c.342.76.672,1.539.979,2.314Zm-100.427-2.657-.38-.175c.349-.761.721-1.524,1.105-2.268l.372.192C134.56,168.823,134.191,169.581,133.844,170.336Zm98.379-1.89c-.374-.739-.771-1.479-1.179-2.2l.364-.206c.411.726.811,1.472,1.188,2.217Zm-96.082-2.559-.363-.209c.417-.725.858-1.45,1.308-2.156l.353.225C136.991,164.448,136.554,165.168,136.14,165.887Zm93.624-1.786c-.442-.7-.905-1.4-1.376-2.084l.344-.238c.475.684.941,1.391,1.387,2.1Zm-90.931-2.431-.342-.241c.482-.684.987-1.366,1.5-2.027l.331.256C139.812,160.315,139.312,160.991,138.833,161.67ZM226.919,160c-.5-.66-1.029-1.317-1.561-1.951l.321-.269c.536.639,1.065,1.3,1.573,1.966Zm-85.02-2.28-.319-.271c.541-.636,1.105-1.269,1.677-1.881l.306.285C143,156.459,142.436,157.087,141.9,157.718Zm81.811-1.55c-.562-.612-1.145-1.218-1.733-1.8l.295-.3c.592.588,1.179,1.2,1.746,1.816Zm-78.4-2.105-.293-.3c.6-.585,1.217-1.164,1.84-1.72l.279.312c-.618.551-1.232,1.126-1.826,1.707Zm74.854-1.418c-.616-.559-1.252-1.11-1.89-1.638l.267-.322c.643.532,1.284,1.087,1.9,1.65Zm-71.127-1.91-.264-.324c.647-.527,1.316-1.047,1.988-1.545l.249.336c-.667.494-1.331,1.01-1.973,1.533Zm4.013-2.974-.234-.347c.693-.466,1.406-.922,2.119-1.357l.217.358C154.445,146.845,153.737,147.3,153.05,147.76Zm4.265-2.594-.2-.367c.733-.4,1.484-.79,2.233-1.156l.184.376c-.743.364-1.489.75-2.216,1.147Zm50.494-.969c-.744-.371-1.507-.729-2.267-1.065l.169-.383c.765.338,1.534.7,2.284,1.073ZM161.8,142.974l-.166-.384c.766-.332,1.549-.65,2.328-.946l.149.391c-.773.293-1.55.609-2.31.939Zm41.432-.8c-.775-.3-1.568-.587-2.357-.852l.133-.4c.8.267,1.594.556,2.375.859Zm-36.765-.97-.13-.4c.8-.261,1.606-.506,2.411-.729l.112.4C168.057,140.7,167.252,140.943,166.463,141.2Zm32.02-.622c-.8-.227-1.612-.439-2.419-.63l.1-.407c.814.192,1.634.405,2.438.634Zm-27.2-.715-.093-.408c.815-.186,1.645-.356,2.468-.5l.074.412c-.816.147-1.64.316-2.449.5Zm22.34-.432c-.815-.153-1.645-.289-2.467-.4l.058-.414c.828.116,1.665.253,2.486.407Zm-17.421-.455-.055-.415c.828-.111,1.671-.2,2.5-.276l.036.417c-.826.072-1.662.164-2.484.274Zm12.472-.24c-.824-.078-1.663-.137-2.493-.178l.02-.418c.837.041,1.682.1,2.512.179Zm-7.492-.194-.018-.418c.769-.032,1.553-.048,2.33-.049h.189v.418h-.188c-.771,0-1.549.016-2.312.048Z" transform="translate(-114.611 -127.705)" fill="#3f3d56"/><path d="M826.713,321.862l-1.046,7.113s-4.6,9.2-1.674,18.619l3.766-2.3s2.929-11.3,2.929-12.133,1.255-10.669,1.255-10.669Z" transform="translate(-663.861 -273.043)" fill="#ffb9b9"/><path d="M827.746,430.862l-5.021,3.347,2.51,12.343s.628,16.736.418,17.363-3.975,26.15-3.975,26.15,4.393,2.092,8.368.837c0,0,3.975-18.828,3.975-24.267l4.6-19.037,7.113,21.756s.418,14.644,1.255,19.455.837,5.439.837,5.439,6.694,1.883,8.368,0c0,0-.837-24.685-1.464-27.2l-1.464-29.915Z" transform="translate(-662.802 -359.241)" fill="#2f2e41"/><path d="M781.832,713.426s-.418-.628-1.674,1.046a42.093,42.093,0,0,1-5.23,4.812s-10.878,7.74-2.719,8.159,9.623-3.766,9.623-3.766,6.9-1.255,7.113-2.719-.837-7.322-.837-7.322Z" transform="translate(-621.281 -582.602)" fill="#2f2e41"/><path d="M944.441,731.862s-1.464,5.021-1.046,7.113-.837,9.832,5.021,9.2,3.975-7.322,3.975-7.322l-1.883-8.577Z" transform="translate(-758.996 -597.273)" fill="#2f2e41"/><circle cx="6.904" cy="6.904" r="6.904" transform="translate(170.278 11.268)" fill="#ffb9b9"/><path d="M889.679,188.908s2.092,7.322.418,10.041,11.3.418,12.133-2.092c0,0-4.184-4.6-3.556-9Z" transform="translate(-716.576 -167.076)" fill="#ffb9b9"/><path d="M850.192,229.522s5.727.387,8.512-2.735L869.02,231.2l-4.393,24.267s8.786,20.5.837,22.384-30.961,0-29.915-6.9,5.23-15.271,5.23-15.271,1.046-9.2-1.255-13.389-.837-9-.837-9l9.208-6.1S848.31,229.522,850.192,229.522Z" transform="translate(-673.743 -197.858)" fill="#575a89"/><path d="M838.955,258.862h-2.51s-2.929.628-2.3,8.577l-1.464,5.648s7.322,1.883,8.368.837S838.955,258.862,838.955,258.862Z" transform="translate(-671.501 -223.223)" fill="#575a89"/><path d="M967.261,318.862l-.837,7.322s1.046,9.623-2.51,17.154l-1.255,3.766s-1.255,10.878-4.6,10.878,0-12.343,0-12.343L959.73,333.3s1.255-4.812.418-6.9a27.441,27.441,0,0,1-1.046-6.485Z" transform="translate(-769.473 -270.671)" fill="#ffb9b9"/><path d="M875.424,125.268a27.6,27.6,0,0,1,3.093-.307,4.657,4.657,0,0,1,2.211.3,4.37,4.37,0,0,1,1.971,2.657,10.54,10.54,0,0,0,1.337,3.105c1.158-1.209,1.389-3.006,1.562-4.671a6.135,6.135,0,0,0-.313-3.465,5.477,5.477,0,0,0-1.441-1.61c-2.661-2.215-6.04-3.957-9.466-3.46l-.08.529a9.446,9.446,0,0,0-1.748.11l.122,1.312-1.82.115-.07,1.368-1.84.064a2.133,2.133,0,0,0,.642,1.386,2.592,2.592,0,0,1-.945.427c.307,1.188.6,2.379.922,3.564.234.873.192,1.645,1.128,1.219.713-.324,1.2-1.356,1.917-1.783A7.894,7.894,0,0,1,875.424,125.268Z" transform="translate(-699.938 -111.614)" fill="#2f2e41"/><path d="M967.444,248.862h2.929s4.812,16.108,3.975,16.317-10.669.837-10.669.837Z" transform="translate(-775.096 -215.315)" fill="#575a89"/><circle cx="16.945" cy="16.945" r="16.945" transform="translate(50.827 47.459)" fill="#83b33b"/><path d="M294.3,265.857h-9v-9h-3.347v9h-9V269.2h9v9H285.3v-9h9Z" transform="translate(-215.858 -203.127)" fill="#fff"/><rect width="23.044" height="26.847" transform="translate(14.98 93.028)" fill="#f2f2f2"/><path d="M164.973,540.808H132.757V508.592h32.216Zm-31.769-.447h31.321V509.039H133.2Z" transform="translate(-118 -420.71)" fill="#3f3d56"/><rect width="19.688" height="0.447" transform="translate(21.468 97.279)" fill="#3f3d56"/><rect width="19.688" height="0.447" transform="translate(21.468 102.201)" fill="#3f3d56"/><rect width="19.688" height="0.447" transform="translate(21.468 107.123)" fill="#3f3d56"/><rect width="46.442" height="23.046" transform="translate(47.026 4.777)" fill="#f2f2f2"/><path d="M342.074,116.532H286.009V88.5h56.065Zm-55.646-.418h55.228v-27.2H286.427Z" transform="translate(-239.192 -88.5)" fill="#3f3d56"/><rect width="30.111" height="0.418" transform="translate(55.191 11.698)" fill="#3f3d56"/><rect width="30.111" height="0.418" transform="translate(55.191 16.091)" fill="#3f3d56"/><rect width="30.111" height="0.418" transform="translate(55.191 20.484)" fill="#3f3d56"/><rect width="19.874" height="21.129" transform="translate(110.866 62.939)" fill="#f2f2f2"/><path d="M616.283,396.466h-25.1v-25.1h25.1Zm-24.685-.418h24.267V371.78H591.6Z" transform="translate(-480.522 -312.188)" fill="#3f3d56"/><rect width="13.807" height="0.418" transform="translate(113.9 70.575)" fill="#3f3d56"/><rect width="13.807" height="0.418" transform="translate(113.9 73.295)" fill="#3f3d56"/><rect width="13.807" height="0.418" transform="translate(113.9 76.014)" fill="#3f3d56"/><rect width="95.717" height="0.418" transform="translate(26.99 27.614)" fill="#3f3d56"/><rect width="52.508" height="0.418" transform="translate(96.955 83.859)" fill="#3f3d56"/><rect width="61.729" height="0.418" transform="translate(0 119.841)" fill="#3f3d56"/></svg>