<svg xmlns="http://www.w3.org/2000/svg" width="1028.919" height="298.511" viewBox="0 0 1028.919 298.511"><path d="M416.53,554.07c34.91-13.73,89.71-16.53,139.59-15.43,156.68,3.43,298.11,36.8,420.44,74.55,44.29,13.67,87.89,28.4,116.64,47.22,58.52,38.31,41.16,91.38-40.21,122.94-27.69,10.74-61.25,19-95.71,26.26C896,822.59,829.92,833,760.38,836c-49.58,2.11-99.78.39-149.07-2.56C473.58,825.17,338.4,807,225.09,775.77c-49.7-13.67-96.54-30.67-117-52.8s-7.38-50.15,43.37-63.25c21-5.41,46.08-7.86,70.65-10.15,36.16-3.38,72.9-6.72,105.53-13.59,33.71-7.1,73.62-20.83,66.95-36.54C387.4,582.58,381.66,567.78,416.53,554.07Z" transform="translate(-98.843 -538.424)" fill="#536dfe" opacity="0.1"/></svg>