<svg xmlns="http://www.w3.org/2000/svg" xmlns:xlink="http://www.w3.org/1999/xlink" width="173.198" height="114.527" viewBox="0 0 173.198 114.527"><defs><linearGradient id="a" x1="0.5" y1="1" x2="0.5" gradientUnits="objectBoundingBox"><stop offset="0" stop-color="gray" stop-opacity="0.251"/><stop offset="0.54" stop-color="gray" stop-opacity="0.122"/><stop offset="1" stop-color="gray" stop-opacity="0.102"/></linearGradient></defs><g transform="translate(-35.61)"><rect width="173.198" height="114.527" transform="translate(35.61)" fill="url(#a)"/><rect width="169.734" height="97.532" transform="translate(37.125 13.531)" fill="#fff"/><rect width="169.734" height="11.15" transform="translate(37.125 2.381)" fill="#6c63ff"/><rect width="165.404" height="85.083" transform="translate(39.507 20.567)" fill="url(#a)"/><rect width="19.918" height="15.913" transform="translate(41.564 22.083)" fill="#6c63ff" opacity="0.5"/><rect width="19.918" height="15.913" transform="translate(61.698 22.083)" fill="#fff"/><rect width="19.918" height="15.913" transform="translate(81.832 22.083)" fill="#6c63ff" opacity="0.2"/><rect width="19.918" height="15.913" transform="translate(101.966 22.083)" fill="#fff"/><rect width="19.918" height="15.913" transform="translate(122.101 22.083)" fill="#fff"/><rect width="19.918" height="15.913" transform="translate(142.235 22.083)" fill="#6c63ff" opacity="0.5"/><rect width="19.918" height="15.913" transform="translate(162.369 22.083)" fill="#fff"/><rect width="19.918" height="15.913" transform="translate(182.503 22.083)" fill="#6c63ff" opacity="0.2"/><rect width="19.918" height="15.913" transform="translate(41.564 38.32)" fill="#6c63ff" opacity="0.2"/><rect width="19.918" height="15.913" transform="translate(61.698 38.32)" fill="#6c63ff" opacity="0.2"/><rect width="19.918" height="15.913" transform="translate(81.832 38.32)" fill="#fff"/><rect width="19.918" height="15.913" transform="translate(101.966 38.32)" fill="#6c63ff" opacity="0.5"/><rect width="19.918" height="15.913" transform="translate(122.101 38.32)" fill="#fff"/><rect width="19.918" height="15.913" transform="translate(142.235 38.32)" fill="#6c63ff" opacity="0.2"/><rect width="19.918" height="15.913" transform="translate(162.369 38.32)" fill="#6c63ff" opacity="0.5"/><rect width="19.918" height="15.913" transform="translate(182.503 38.32)" fill="#fff"/><rect width="19.918" height="15.913" transform="translate(41.564 54.341)" fill="#fff"/><rect width="19.918" height="15.913" transform="translate(61.698 54.341)" fill="#fff"/><rect width="19.918" height="15.913" transform="translate(81.832 54.341)" fill="#6c63ff" opacity="0.2"/><rect width="19.918" height="15.913" transform="translate(101.966 54.341)" fill="#fff"/><rect width="19.918" height="15.913" transform="translate(122.101 54.341)" fill="#6c63ff" opacity="0.2"/><rect width="19.918" height="15.913" transform="translate(142.235 54.341)" fill="#fff"/><rect width="19.918" height="15.913" transform="translate(162.369 54.341)" fill="#fff"/><rect width="19.918" height="15.913" transform="translate(182.503 54.341)" fill="#6c63ff" opacity="0.2"/><rect width="19.918" height="15.913" transform="translate(41.564 70.361)" fill="#fff"/><rect width="19.918" height="15.913" transform="translate(61.698 70.361)" fill="#6c63ff" opacity="0.5"/><rect width="19.918" height="15.913" transform="translate(81.832 70.361)" fill="#6c63ff" opacity="0.5"/><rect width="19.918" height="15.913" transform="translate(101.966 70.361)" fill="#fff"/><rect width="19.918" height="15.913" transform="translate(122.101 70.361)" fill="#fff"/><rect width="19.918" height="15.913" transform="translate(142.235 70.361)" fill="#6c63ff" opacity="0.5"/><rect width="19.918" height="15.913" transform="translate(162.369 70.361)" fill="#fff"/><rect width="19.918" height="15.913" transform="translate(182.503 70.361)" fill="#6c63ff" opacity="0.5"/><rect width="19.918" height="15.913" transform="translate(41.564 86.599)" fill="#6c63ff" opacity="0.5"/><rect width="19.918" height="15.913" transform="translate(61.698 86.599)" fill="#6c63ff" opacity="0.2"/><rect width="19.918" height="15.913" transform="translate(81.832 86.599)" fill="#fff"/><rect width="19.918" height="15.913" transform="translate(101.966 86.599)" fill="#6c63ff" opacity="0.5"/><rect width="19.918" height="15.913" transform="translate(122.101 86.599)" fill="#6c63ff" opacity="0.2"/><rect width="19.918" height="15.913" transform="translate(142.235 86.599)" fill="#fff"/><rect width="19.918" height="15.913" transform="translate(162.369 86.599)" fill="#6c63ff" opacity="0.2"/><rect width="19.918" height="15.913" transform="translate(182.503 86.599)" fill="#fff"/><rect width="6.062" height="6.062" transform="translate(43.187 55.856)" fill="#69f0ae"/><rect width="6.062" height="6.062" transform="translate(103.374 23.815)" fill="#69f0ae"/><rect width="6.062" height="6.062" transform="translate(102.724 55.856)" fill="#69f0ae"/><rect width="6.062" height="6.062" transform="translate(123.291 71.227)" fill="#69f0ae"/><rect width="6.062" height="6.062" transform="translate(163.343 55.856)" fill="#69f0ae"/><path d="M9.537,0,0,22.585" transform="translate(65.292 83.174)" fill="#6c63ff"/></g></svg>