<svg xmlns="http://www.w3.org/2000/svg" width="241.528" height="137.415" viewBox="0 0 241.528 137.415"><g transform="translate(0 -35.581)"><ellipse cx="120.764" cy="4.896" rx="120.764" ry="4.896" transform="translate(0 163.204)" fill="#e6e6e6"/><circle cx="57.255" cy="57.255" r="57.255" transform="translate(67.603 54.16)" fill="#3f3d56"/><circle cx="52.515" cy="52.515" r="52.515" transform="translate(72.343 58.899)" fill="#fff"/><circle cx="7.015" cy="7.015" r="7.015" transform="translate(117.654 104.589)" fill="#3f3d56"/><rect width="3.033" height="5.688" transform="translate(123.152 61.554)" fill="#3f3d56"/><rect width="3.033" height="5.688" transform="translate(123.152 155.967)" fill="#3f3d56"/><rect width="3.033" height="5.688" transform="translate(80.305 110.087) rotate(90)" fill="#3f3d56"/><rect width="3.033" height="5.688" transform="translate(174.719 110.087) rotate(90)" fill="#3f3d56"/><path d="M450.924,310.42l2.592-5.927L486,322.483Z" transform="translate(-328.278 -195.771)" fill="#3f3d56"/><rect width="14.788" height="17.063" transform="translate(117.464 40.32)" fill="#3f3d56"/><ellipse cx="17.063" cy="4.74" rx="17.063" ry="4.74" transform="translate(107.795 35.581)" fill="#3f3d56"/><path d="M715.462,527.731l-.948,1.327s-4.36,5.119-4.55,2.654,3.223-4.171,3.223-4.171l1.9-1.138Z" transform="translate(-558.659 -406.174)" fill="#ffb8b8"/><path d="M825.773,547.142l.794,1.425s2.76,6.132.452,5.248-2.39-4.7-2.39-4.7l-.217-2.2Z" transform="translate(-641.984 -421.107)" fill="#ffb8b8"/><circle cx="5.773" cy="5.773" r="5.773" transform="translate(173.749 89.227)" fill="#2f2e41"/><path d="M811.751,607.188l.758,4.929v1.517h4.36v-1.9s.19-3.413-.569-4.36S811.751,607.188,811.751,607.188Z" transform="translate(-632.767 -464.777)" fill="#ffb8b8"/><path d="M783.173,607.188l.758,4.929v1.517h4.36v-1.9s.19-3.413-.569-4.36S783.173,607.188,783.173,607.188Z" transform="translate(-611.962 -464.777)" fill="#ffb8b8"/><path d="M791.467,462.384s-1.677.884-.532,2.895,7.867,22.813,7.867,22.813l3.877-1.1-3.42-13.156-1.958-8.269Z" transform="translate(-617.321 -359.567)" fill="#6c63ff"/><circle cx="4.36" cy="4.36" r="4.36" transform="translate(174.529 92.267)" fill="#ffb8b8"/><path d="M806.543,442.063l-.569,8.91-3.981-2.844s1.327-5.308.948-5.688Z" transform="translate(-625.663 -344.773)" fill="#ffb8b8"/><path d="M794.2,462.681l-4.289-3.176s-1.967-.805-2.536.143-3.412,14.977-1.9,17.631c0,0,8.152,1.706,9.859.758l.758-4.929s.948-3.033-.569-4.929Z" transform="translate(-613.321 -357.238)" fill="#6c63ff"/><path d="M744.021,460.674s-1.517-1.138-2.844.758-17.252,16.873-17.252,16.873l2.654,3.033,10.427-8.721,6.635-5.308Z" transform="translate(-568.829 -358.075)" fill="#6c63ff"/><path d="M791.643,525.573s-9.384-1.8-10.332-.474l-.19,2.085s-2.085,3.981-.948,10.427a31.74,31.74,0,0,1,.379,10.427,41.931,41.931,0,0,1,8.911,0c3.792.569,4.36,0,4.36,0Z" transform="translate(-609.53 -404.868)" fill="#2f2e41"/><path d="M817.249,628.868l-5.5.19,1.9,14.219s-1.517,6.067.19,6.446a19.229,19.229,0,0,0,3.6.379,5.225,5.225,0,0,0,3.6,1.517,10.614,10.614,0,0,0,3.6-1.138,1.178,1.178,0,0,0-.948-1.517c-1.327-.379-4.929-1.517-5.688-5.5Z" transform="translate(-632.767 -480.769)" fill="#2f2e41"/><path d="M788.671,628.868l-5.5.19,1.9,14.219s-1.517,6.067.189,6.446a19.229,19.229,0,0,0,3.6.379,5.225,5.225,0,0,0,3.6,1.517,10.614,10.614,0,0,0,3.6-1.138,1.178,1.178,0,0,0-.948-1.517c-1.327-.379-4.929-1.517-5.688-5.5Z" transform="translate(-611.962 -480.769)" fill="#2f2e41"/><circle cx="2.389" cy="2.389" r="2.389" transform="translate(179.152 86.535)" fill="#2f2e41"/><path d="M827.133,400.152a2.389,2.389,0,0,0-2.14-2.376,2.417,2.417,0,0,1,.249-.013,2.389,2.389,0,0,1,0,4.777,2.438,2.438,0,0,1-.249-.013A2.389,2.389,0,0,0,827.133,400.152Z" transform="translate(-642.407 -312.522)" fill="#2f2e41"/><ellipse cx="3.981" cy="2.389" rx="3.981" ry="2.389" transform="translate(174.869 91.387)" fill="#2f2e41"/></g></svg>