<svg xmlns="http://www.w3.org/2000/svg" width="87.42" height="142.394" viewBox="0 0 87.42 142.394"><g transform="translate(-26.521 0)"><path d="M279.1,431.592s-1.841,22.132-2.236,26.874a33.724,33.724,0,0,1-1.976,8.695,8.176,8.176,0,0,0-.79,3.162v20.155a1.175,1.175,0,0,0-1.186,1.581c.4,1.581.79,4.347.79,4.347h5.928a1.224,1.224,0,0,1,.79-1.581c1.186-.4,0-3.557,0-3.557l6.323-23.712,9.485-19.76s5.533,17.784,6.718,19.76c0,0,4.347,22.131,5.138,24.107s1.186,1.976.79,2.766a1.764,1.764,0,0,0,0,1.976c.4.4,7.9,0,7.9,0l-1.976-28.06-3.557-33.592-18.179-5.533Z" transform="translate(-241.439 -363.555)" fill="#2f2e41"/><path d="M264.565,659.586s-1.976-7.114-5.138-1.581-3.162,7.509-3.162,7.509-5.138,7.509,1.976,6.719,5.533-4.347,5.533-4.347,2.766-1.581,2.766-2.766S264.565,659.586,264.565,659.586Z" transform="translate(-227.951 -529.897)" fill="#2f2e41"/><path d="M407.211,656.617s1.976-7.114,5.138-1.581,3.162,7.509,3.162,7.509,5.138,7.509-1.976,6.718S408,664.916,408,664.916s-2.766-1.581-2.766-2.766S407.211,656.617,407.211,656.617Z" transform="translate(-338.585 -527.719)" fill="#2f2e41"/><path d="M337.253,237.686s.79,5.138-1.581,6.323,5.138,5.533,7.114,5.533,5.533-3.952,5.533-3.952-1.976-5.928-1.581-7.114Z" transform="translate(-287.201 -223.001)" fill="#a0616a"/><circle cx="8.299" cy="8.299" r="8.299" transform="translate(46.1 2.038)" fill="#a0616a"/><path d="M328.163,266.675l-9.88-5.986s-5.621,6.381-11.7-.733l-10.429,2.766,1.581,26.874s-2.371,10.671-1.581,12.647-1.976,2.766-1.186,3.162,0,3.162,0,3.162,15.413,7.9,32.407,1.976l-1.581-5.138a4.147,4.147,0,0,0-.79-3.952,3.5,3.5,0,0,0-.4-4.347s.79-3.557-1.186-5.138l-.4-5.533,1.186-2.766Z" transform="translate(-257.561 -239.344)" fill="#cfcce0"/><path d="M330.842,189s-.989,2.141,2.968,1.285c0,0,1.484.857,1.484-.428,0,0,1.979,2.141,2.474.856s1.484.428,1.484.428l.989-2.141.989,1.285h3.463s.989-8.565-10.884-7.709S327.778,197,327.778,197s.1-2.436,1.085-1.151S330.842,189,330.842,189Z" transform="translate(-280.69 -182.515)" fill="#2f2e41"/><path d="M412.982,344.589l.4,8.3s1.581,15.413-1.581,22.131v3.557s-.79,9.09-4.742,8.695,1.186-13.042,1.186-13.042l-.79-17.389-.79-9.88Z" transform="translate(-338.823 -301.45)" fill="#a0616a"/><path d="M393.944,284.917l3.942-.641a19.248,19.248,0,0,1,5.543,10.125c1.186,6.323,1.581,7.509,1.581,7.509l-9.485,2.371-5.138-9.88Z" transform="translate(-327.689 -257.191)" fill="#cfcce0"/><rect width="62.367" height="30.981" transform="translate(49.28 23.216)" fill="#fff"/><path d="M353.793,274.379a7.289,7.289,0,0,0-4.269-.816,6.294,6.294,0,0,0,6.99,4.206A7.294,7.294,0,0,0,353.793,274.379Z" transform="translate(-297.703 -249.3)" fill="#6c63ff"/><path d="M360.028,348.571H350.014a2.253,2.253,0,1,0,0,4.506h10.014a2.253,2.253,0,1,0,0-4.506Z" transform="translate(-296.409 -304.372)" fill="#6c63ff"/><path d="M395.713,259.215H339.566a4.974,4.974,0,0,0-4.974,4.974v27.356a4.974,4.974,0,0,0,4.974,4.974h56.147a4.974,4.974,0,0,0,4.974-4.974V264.189a4.974,4.974,0,0,0-4.974-4.974Zm-57.536,3.393a6.864,6.864,0,0,1,7.965,4.792l.088.273-.283.05a7.509,7.509,0,0,1-1.218.09,7.255,7.255,0,0,1-3.7-.932,7.857,7.857,0,0,1-3.048-3.949l-.088-.273Zm12.188,25.4H340.35a2.754,2.754,0,1,1,0-5.508h10.014a2.754,2.754,0,1,1,0,5.508Zm45.565-.5a3.013,3.013,0,0,1-3,3h-7.511a3.013,3.013,0,0,1-3-3V283a3.013,3.013,0,0,1,3-3h7.511a3.013,3.013,0,0,1,3,3Z" transform="translate(-286.745 -238.8)" fill="#6c63ff"/><path d="M523.078,362.209h-3.255a.876.876,0,1,0,0,1.753h3.255a.876.876,0,0,0,0-1.753Zm0,1.252h-3.255a.376.376,0,1,1,0-.751h3.255a.376.376,0,0,1,0,.751Z" transform="translate(-422.03 -314.38)" fill="#6c63ff"/><path d="M545.652,362.209H542.4a.876.876,0,1,0,0,1.753h3.255a.876.876,0,0,0,0-1.753Zm0,1.252H542.4a.376.376,0,0,1,0-.751h3.255a.376.376,0,1,1,0,.751Z" transform="translate(-438.595 -314.38)" fill="#6c63ff"/><path d="M523.078,353.744h-3.255a.876.876,0,1,0,0,1.753h3.255a.876.876,0,0,0,0-1.753Zm0,1.252h-3.255a.376.376,0,1,1,0-.751h3.255a.376.376,0,0,1,0,.751Z" transform="translate(-422.03 -308.168)" fill="#6c63ff"/><path d="M545.652,353.744H542.4a.876.876,0,1,0,0,1.753h3.255a.876.876,0,0,0,0-1.753Zm0,1.252H542.4a.376.376,0,0,1,0-.751h3.255a.376.376,0,0,1,0,.751Z" transform="translate(-438.595 -308.168)" fill="#6c63ff"/><path d="M523.078,345.279h-3.255a.876.876,0,1,0,0,1.753h3.255a.876.876,0,0,0,0-1.753Zm0,1.252h-3.255a.376.376,0,1,1,0-.751h3.255a.376.376,0,0,1,0,.751Z" transform="translate(-422.03 -301.956)" fill="#6c63ff"/><path d="M545.652,345.279H542.4a.876.876,0,1,0,0,1.753h3.255a.876.876,0,0,0,0-1.753Zm0,1.252H542.4a.376.376,0,0,1,0-.751h3.255a.376.376,0,1,1,0,.751Z" transform="translate(-438.595 -301.956)" fill="#6c63ff"/><path d="M273.767,299.375s-3.557,15.018.79,15.018S289.18,297.4,289.18,297.4s10.67-5.533,6.323-7.509-9.88,3.162-9.88,3.162l-6.384,8.863L278.9,297.4Z" transform="translate(-241.105 -260.978)" fill="#a0616a"/><path d="M281.486,272.722l-2.371-2.371s-4.742,2.766-5.138,5.533-2.371,11.461-2.371,11.461l7.311.593,2.371-3.557Z" transform="translate(-240.524 -246.971)" fill="#cfcce0"/></g></svg>