<svg xmlns="http://www.w3.org/2000/svg" width="239.846" height="360.307" viewBox="0 0 239.846 360.307">
  <g id="Group_36" data-name="Group 36" transform="translate(-171.131 -213.379)">
    <path id="Path_371" data-name="Path 371" d="M233.174,182.772H362.9c12.894,0,24.067,9.3,26.9,22.4l65.549,302.743a23.959,23.959,0,0,1-4,19.148,22.042,22.042,0,0,1-16.648,9.137l-133.362,6.842c-14.772.758-27.792-10.012-30.425-25.166L233.738,303.832l-2.766.823-7.115-40.569,2.848-.741L216.326,203.6a18.208,18.208,0,0,1,3.722-14.537,16.709,16.709,0,0,1,13.126-6.289Z" transform="translate(-44.923 30.608)" fill="#3f3d56"/>
    <path id="Path_372" data-name="Path 372" d="M344.651,194.4h13.575c8.032,0,14.979,6.194,16.691,14.881l56.4,286.177A12.711,12.711,0,0,1,429.432,505a10.351,10.351,0,0,1-7.765,4.646l-119.16,8.646c-6.96.5-13.153-4.855-14.389-12.454L239.991,210.047a14.338,14.338,0,0,1,2.6-10.883,11.58,11.58,0,0,1,9.213-4.767h12.878a5.8,5.8,0,0,1,5.472,4.643h0a5.116,5.116,0,0,0,4.831,4.1h61.135c4.469,0,8.184-3.809,8.527-8.742Z" transform="translate(-44.923 30.608)" fill="#0a3ea6"/>
  </g>
</svg>
