<svg xmlns="http://www.w3.org/2000/svg" width="302.231" height="305.113" viewBox="0 0 302.231 305.113"><g transform="translate(-219.636)"><path d="M431.382,70.569h-.566v-.99h.424a.283.283,0,0,0,.283-.283V64.2a.283.283,0,0,0-.283-.283h-.424V61.027a6.162,6.162,0,0,0-6.162-6.162h-.629v-.707a.283.283,0,0,0-.283-.283h-5.093a.283.283,0,0,0-.283.283v.707H326.345a6.162,6.162,0,0,0-6.162,6.162v131.13a6.162,6.162,0,0,0,6.162,6.162h98.308a6.162,6.162,0,0,0,6.162-6.162V76.228h.566a.283.283,0,0,0,.283-.283V70.852A.283.283,0,0,0,431.382,70.569Z" transform="translate(-66.357 -53.875)" fill="#3f3d56"/><rect width="101.296" height="134.403" transform="translate(258.919 5.021)" fill="#f2f2f2"/><path d="M807.9,122.873h-.626v-17.16a9.932,9.932,0,0,0-9.932-9.932H760.988a9.932,9.932,0,0,0-9.932,9.932v94.141a9.932,9.932,0,0,0,9.932,9.932h36.355a9.932,9.932,0,0,0,9.932-9.932V135.088h.626Z" transform="translate(-316.044 -78.159)" fill="#3f3d56"/><path d="M808.938,110.568v94a7.417,7.417,0,0,1-7.417,7.418h-36.53a7.417,7.417,0,0,1-7.416-7.417v-94a7.416,7.416,0,0,1,7.415-7.416h4.433a3.523,3.523,0,0,0,3.263,4.853h20.828a3.523,3.523,0,0,0,3.263-4.853h4.745a7.416,7.416,0,0,1,7.416,7.415Z" transform="translate(-319.822 -82.431)" fill="#f2f2f2"/><rect width="30.864" height="1.147" transform="translate(452.897 33.22)" fill="#ccc"/><rect width="30.864" height="1.147" transform="translate(452.897 36.852)" fill="#ccc"/><rect width="30.864" height="1.147" transform="translate(452.897 40.483)" fill="#ccc"/><rect width="6.993" height="6.993" transform="translate(443.11 33.929)" fill="#ccc"/><rect width="30.864" height="1.147" transform="translate(452.897 114.799)" fill="#ccc"/><rect width="30.864" height="1.147" transform="translate(452.897 118.43)" fill="#ccc"/><rect width="30.864" height="1.147" transform="translate(452.897 122.062)" fill="#ccc"/><rect width="6.993" height="6.993" transform="translate(443.11 115.507)" fill="#ccc"/><path d="M553.717,431.95H465.948v-1.809h-39.8v1.809H338.02a5.937,5.937,0,0,0-5.937,5.937V558.07a5.937,5.937,0,0,0,5.937,5.937h215.7a5.937,5.937,0,0,0,5.937-5.937V437.887a5.937,5.937,0,0,0-5.937-5.937Z" transform="translate(-73.252 -271.918)" fill="#3f3d56"/><rect width="211.652" height="119.394" transform="translate(266.79 170.524)" fill="#f2f2f2"/><circle cx="2.171" cy="2.171" r="2.171" transform="translate(370.265 162.926)" fill="#6c63ff"/><path d="M553.132,735.7H532.477v-1.488a.3.3,0,0,0-.3-.3H525.1a.3.3,0,0,0-.3.3V735.7h-4.426v-1.488a.3.3,0,0,0-.3-.3H513a.3.3,0,0,0-.3.3V735.7H508.28v-1.488a.3.3,0,0,0-.3-.3H500.9a.3.3,0,0,0-.3.3V735.7h-4.426v-1.488a.3.3,0,0,0-.3-.3H488.8a.3.3,0,0,0-.3.3V735.7h-4.426v-1.488a.3.3,0,0,0-.3-.3h-7.082a.3.3,0,0,0-.3.3V735.7h-4.426v-1.488a.3.3,0,0,0-.3-.3h-7.082a.3.3,0,0,0-.3.3V735.7h-4.426v-1.488a.3.3,0,0,0-.3-.3H404.115a.3.3,0,0,0-.3.3V735.7h-4.426v-1.488a.3.3,0,0,0-.3-.3h-7.082a.3.3,0,0,0-.3.3V735.7H387.3v-1.488a.3.3,0,0,0-.3-.3h-7.082a.3.3,0,0,0-.3.3V735.7H375.2v-1.488a.3.3,0,0,0-.3-.3h-7.082a.3.3,0,0,0-.3.3V735.7H363.1v-1.488a.3.3,0,0,0-.3-.3h-7.082a.3.3,0,0,0-.3.3V735.7H351v-1.488a.3.3,0,0,0-.3-.3h-7.082a.3.3,0,0,0-.3.3V735.7H338.9v-1.488a.3.3,0,0,0-.3-.3h-7.082a.3.3,0,0,0-.3.3V735.7H317.655a7.082,7.082,0,0,0-7.082,7.082v3.2a7.082,7.082,0,0,0,7.082,7.082H553.132a7.082,7.082,0,0,0,7.082-7.082v-3.2A7.082,7.082,0,0,0,553.132,735.7Z" transform="translate(-60.788 -447.954)" fill="#3f3d56"/><rect width="59.393" height="2.207" transform="translate(352.16 179.875)" fill="#e6e6e6"/><rect width="59.393" height="2.207" transform="translate(352.16 186.864)" fill="#e6e6e6"/><rect width="59.393" height="2.207" transform="translate(352.16 193.852)" fill="#e6e6e6"/><rect width="59.393" height="2.207" transform="translate(352.16 179.875)" fill="#ccc"/><rect width="59.393" height="2.207" transform="translate(352.16 186.864)" fill="#ccc"/><rect width="59.393" height="2.207" transform="translate(352.16 193.852)" fill="#ccc"/><rect width="14" height="12" transform="translate(333 181.948)" fill="#ccc"/><rect width="59.393" height="2.207" transform="translate(352.16 258.51)" fill="#ccc"/><rect width="59.393" height="2.207" transform="translate(352.16 265.499)" fill="#ccc"/><rect width="59.393" height="2.207" transform="translate(352.16 272.487)" fill="#ccc"/><rect width="14" height="13" transform="translate(333 259.948)" fill="#ccc"/><path d="M920.753,350.368a22.369,22.369,0,0,0-13.29-7.013l2.186-1.975-2.418-.122-2.992,2.7,2.7,2.992,2.418.122-1.812-2a20.756,20.756,0,0,1-3.31,41.246V388a22.44,22.44,0,0,0,16.514-37.633Z" transform="translate(-404.811 -220.411)" fill="#83b33b"/><path d="M244.8,350.368a22.37,22.37,0,0,1,13.291-7.013l-2.186-1.975,2.418-.122,2.992,2.7-2.7,2.992-2.418.122,1.812-2a20.756,20.756,0,0,0,3.31,41.246V388A22.44,22.44,0,0,1,244.8,350.367Z" transform="translate(-19.239 -220.411)" fill="#83b33b"/><rect width="59.393" height="2.207" transform="translate(289.288 11.672)" fill="#ccc"/><rect width="59.393" height="2.207" transform="translate(289.288 18.66)" fill="#ccc"/><rect width="59.393" height="2.207" transform="translate(289.288 25.649)" fill="#ccc"/><rect width="13.456" height="13.456" transform="translate(270.454 13.036)" fill="#ccc"/><rect width="59.393" height="2.207" transform="translate(289.084 116.379)" fill="#ccc"/><rect width="59.393" height="2.207" transform="translate(289.084 123.367)" fill="#ccc"/><rect width="59.393" height="2.207" transform="translate(289.084 130.355)" fill="#ccc"/><rect width="13" height="14" transform="translate(270 117.948)" fill="#ccc"/><circle cx="10.035" cy="10.035" r="10.035" transform="translate(275.296 63.147)" fill="#6c63ff"/><circle cx="8.2" cy="8.2" r="8.2" transform="translate(303.891 64.982)" fill="#6c63ff"/><circle cx="4.989" cy="4.989" r="4.989" transform="translate(333.861 68.193)" fill="#6c63ff"/><circle cx="5.272" cy="5.272" r="5.272" transform="translate(445.367 69.167)" fill="#6c63ff"/><circle cx="4.191" cy="4.191" r="4.191" transform="translate(460.506 70.247)" fill="#6c63ff"/><circle cx="2.749" cy="2.749" r="2.749" transform="translate(476.006 71.69)" fill="#6c63ff"/><circle cx="23.548" cy="23.548" r="23.548" transform="translate(348.885 202.698)" fill="#6c63ff"/><path d="M579.688,525.9l-8.784-17.74-8.738,17.763,4.938-.006v7.366h7.643v-7.377Z" transform="translate(-198.493 -294.474)" fill="#d0cde1"/></g></svg>