<svg xmlns="http://www.w3.org/2000/svg" xmlns:xlink="http://www.w3.org/1999/xlink" width="209.745" height="105.872" viewBox="0 0 209.745 105.872"><defs><linearGradient id="a" x1="0.5" y1="1" x2="0.5" gradientUnits="objectBoundingBox"><stop offset="0" stop-color="gray" stop-opacity="0.251"/><stop offset="0.54" stop-color="gray" stop-opacity="0.122"/><stop offset="1" stop-color="gray" stop-opacity="0.102"/></linearGradient><linearGradient id="b" x1="0.5" y1="1" x2="0.5" y2="0" xlink:href="#a"/><linearGradient id="c" x1="0.5" y1="1" x2="0.5" y2="0" xlink:href="#a"/><linearGradient id="e" x1="0.5" y1="1" x2="0.5" y2="0" xlink:href="#a"/><linearGradient id="f" x1="0.501" y1="1" x2="0.501" y2="0" xlink:href="#a"/><linearGradient id="g" x1="0.5" y1="1" x2="0.5" y2="0" xlink:href="#a"/><linearGradient id="l" x1="0.5" y1="1" x2="0.5" y2="0" xlink:href="#a"/><linearGradient id="m" x1="0.5" y1="1" x2="0.5" y2="0" xlink:href="#a"/><linearGradient id="q" x1="0.5" y1="1" x2="0.5" y2="0" xlink:href="#a"/><linearGradient id="r" x1="0.501" y1="1" x2="0.501" y2="0" xlink:href="#a"/><linearGradient id="s" x1="0.5" y1="1" x2="0.5" gradientUnits="objectBoundingBox"><stop offset="0" stop-color="#b3b3b3" stop-opacity="0.251"/><stop offset="0.54" stop-color="#b3b3b3" stop-opacity="0.102"/><stop offset="1" stop-color="#b3b3b3" stop-opacity="0.051"/></linearGradient><linearGradient id="t" x1="0.5" y1="1.001" x2="0.5" gradientUnits="objectBoundingBox"><stop offset="0" stop-opacity="0.122"/><stop offset="0.55" stop-opacity="0.09"/><stop offset="1" stop-opacity="0.02"/></linearGradient><linearGradient id="u" x1="0.5" y1="0.999" x2="0.5" y2="0" xlink:href="#t"/></defs><g transform="translate(-541 -1238)"><g transform="translate(541 1238)"><circle cx="39.588" cy="39.588" r="39.588" transform="translate(7.332 11.431)" fill="none" stroke="#ff9800" stroke-miterlimit="10" stroke-width="4" stroke-dasharray="12" opacity="0.3"/><circle cx="39.588" cy="39.588" r="39.588" transform="translate(111.741 3.6)" fill="none" stroke="#ff9800" stroke-miterlimit="10" stroke-width="4" stroke-dasharray="12" opacity="0.3"/><g transform="translate(162.165 34.085)"><path d="M896.288,430.55a9.788,9.788,0,0,1-2.658-6.7,9.943,9.943,0,0,1,4.877-8.5,5.771,5.771,0,0,1-1.018-3.263,6.049,6.049,0,0,1,6.151-5.943,6.123,6.123,0,0,1,5.9,4.279,9.229,9.229,0,0,1,7.848-4.279A9.016,9.016,0,0,1,926.555,415a8.57,8.57,0,0,1-.561,3.056c.185-.013.372-.028.561-.028a7.235,7.235,0,0,1,7.356,7.108,6.944,6.944,0,0,1-.037.718,8.828,8.828,0,0,1,5.525,8.109,8.985,8.985,0,0,1-9.136,8.827,9.5,9.5,0,0,1-1.581-.135c.026.294.043.592.043.892a10.083,10.083,0,0,1-10.252,9.906,10.44,10.44,0,0,1-5.838-1.764,7.783,7.783,0,0,1-4.957,1.764,7.531,7.531,0,0,1-7.659-7.4c0-.176.015-.35.028-.524h-.028a8.066,8.066,0,0,1-8.2-7.924A7.9,7.9,0,0,1,896.288,430.55Z" transform="translate(-891.82 -406.149)" fill="url(#a)"/></g><path d="M900.786,434.132a9.375,9.375,0,0,1-2.543-6.41,9.517,9.517,0,0,1,4.668-8.135,5.523,5.523,0,0,1-.974-3.13,5.791,5.791,0,0,1,5.888-5.688,5.873,5.873,0,0,1,5.655,4.094,8.836,8.836,0,0,1,7.5-4.091,8.629,8.629,0,0,1,8.773,8.483,8.206,8.206,0,0,1-.537,2.926c.178-.013.357-.026.537-.026a6.925,6.925,0,0,1,7.041,6.8,6.665,6.665,0,0,1-.037.687,8.46,8.46,0,0,1,5.288,7.761,8.6,8.6,0,0,1-8.744,8.448,9.087,9.087,0,0,1-1.523-.128c.027.281.042.566.042.853a9.65,9.65,0,0,1-9.812,9.479,10.006,10.006,0,0,1-5.588-1.688,7.45,7.45,0,0,1-4.727,1.692,7.21,7.21,0,0,1-7.33-7.082c0-.17.013-.335.026-.5h-.026a7.721,7.721,0,0,1-7.85-7.585,7.559,7.559,0,0,1,4.276-6.76Z" transform="translate(-733.325 -375.679)" fill="#009688"/><line y2="52.691" transform="translate(184.093 48.537)" fill="#795548"/><rect width="2.869" height="52.689" transform="translate(182.61 48.537)" fill="url(#b)"/><rect width="1.588" height="52.689" transform="translate(183.299 48.537)" fill="#795548"/><line x1="9.41" y1="9.597" transform="translate(174.844 54.721)" fill="#795548"/><rect width="1.588" height="13.44" transform="matrix(0.714, -0.7, 0.7, 0.714, 174.28, 55.277)" fill="#795548"/><line y1="6.843" x2="9.753" transform="translate(184.254 65.723)" fill="#795548"/><rect width="11.916" height="1.588" transform="translate(183.797 71.912) rotate(-35.06)" fill="#795548"/><g transform="translate(143.95 34.464)"><path d="M849.706,432.837a10.384,10.384,0,0,0-2.143-15.531,6.14,6.14,0,0,0,.983-3.343,5.923,5.923,0,0,0-11.637-1.7,8.807,8.807,0,0,0-7.576-4.372,8.953,8.953,0,0,0-8.851,9.051,9.216,9.216,0,0,0,.542,3.124c-.178-.013-.359-.028-.542-.028a7.2,7.2,0,0,0-7.1,7.265c0,.248.013.492.037.733a9.029,9.029,0,0,0-5.336,8.287,8.924,8.924,0,0,0,8.82,9.023,8.674,8.674,0,0,0,1.523-.137c-.026.3-.041.6-.041.911a10.013,10.013,0,0,0,9.9,10.123,9.7,9.7,0,0,0,5.636-1.8,7.265,7.265,0,0,0,4.785,1.8,7.481,7.481,0,0,0,7.4-7.563c0-.181-.015-.359-.026-.537h.026a8.009,8.009,0,0,0,7.918-8.1A8.118,8.118,0,0,0,849.706,432.837Z" transform="translate(-808.079 -407.89)" fill="url(#c)"/></g><path d="M853.679,438.126a9.747,9.747,0,0,0-2.012-14.574,5.763,5.763,0,0,0,.922-3.139,5.555,5.555,0,0,0-10.915-1.6,8.266,8.266,0,0,0-7.113-4.1,8.4,8.4,0,0,0-8.307,8.5,8.651,8.651,0,0,0,.509,2.932c-.167-.013-.337-.026-.509-.026a6.739,6.739,0,0,0-6.667,6.819,6.523,6.523,0,0,0,.035.687,8.483,8.483,0,0,0-5,7.781,8.37,8.37,0,0,0,8.281,8.468,8.139,8.139,0,0,0,1.433-.128c-.024.283-.039.568-.039.855a9.4,9.4,0,0,0,9.29,9.5,9.1,9.1,0,0,0,5.29-1.692,6.819,6.819,0,0,0,4.492,1.692,7.022,7.022,0,0,0,6.941-7.1c0-.17-.013-.337-.024-.5h.024a7.519,7.519,0,0,0,7.433-7.6A7.613,7.613,0,0,0,853.679,438.126Z" transform="translate(-669.247 -378.763)" fill="#00897b"/><rect width="2.158" height="53.679" transform="translate(167.618 48.518)" fill="url(#c)"/><rect width="1.085" height="52.924" transform="translate(168.232 49.272)" fill="#795548"/><rect width="13.112" height="1.085" transform="translate(168.129 64.858) rotate(-47.2)" fill="#795548"/><rect width="1.085" height="11.504" transform="matrix(0.596, -0.803, 0.803, 0.596, 158.973, 67.087)" fill="#795548"/><g transform="translate(140.955 58.469)"><path d="M797.355,534.887a6.675,6.675,0,0,1-1.81-4.568,6.776,6.776,0,0,1,3.324-5.79,3.932,3.932,0,0,1-.694-2.229,4.124,4.124,0,0,1,4.192-4.05,4.174,4.174,0,0,1,4.022,2.915,6.291,6.291,0,0,1,5.349-2.915,6.144,6.144,0,0,1,6.247,6.034,5.84,5.84,0,0,1-.383,2.084c.126,0,.252-.02.383-.02a4.926,4.926,0,0,1,5,4.844,4.715,4.715,0,0,1-.026.489,6.014,6.014,0,0,1,3.765,5.527,6.122,6.122,0,0,1-6.225,6.014,6.468,6.468,0,0,1-1.088-.091c.02.2.03.4.03.607a6.865,6.865,0,0,1-6.987,6.743A7.122,7.122,0,0,1,808.5,549.3a5.3,5.3,0,0,1-3.378,1.192,5.134,5.134,0,0,1-5.22-5.042,2.159,2.159,0,0,1,.02-.357h-.02a5.5,5.5,0,0,1-5.588-5.4A5.381,5.381,0,0,1,797.355,534.887Z" transform="translate(-794.31 -518.249)" fill="url(#e)"/></g><path d="M800.384,537.369a6.389,6.389,0,0,1-1.74-4.368,6.484,6.484,0,0,1,3.182-5.542,3.763,3.763,0,0,1-.663-2.134,3.946,3.946,0,0,1,4.011-3.876,3.994,3.994,0,0,1,3.85,2.791,6.021,6.021,0,0,1,5.118-2.791,5.881,5.881,0,0,1,5.979,5.777,5.591,5.591,0,0,1-.365,1.995c.122,0,.241-.017.365-.017a4.719,4.719,0,0,1,4.8,4.635,4.534,4.534,0,0,1-.024.468,5.758,5.758,0,0,1,3.6,5.29,5.862,5.862,0,0,1-5.96,5.758,6.194,6.194,0,0,1-1.031-.087c.017.191.028.385.028.581a6.576,6.576,0,0,1-6.686,6.46,6.817,6.817,0,0,1-3.807-1.151,5.077,5.077,0,0,1-3.232,1.151,4.92,4.92,0,0,1-5-4.827,2.224,2.224,0,0,1,.017-.341h-.017a5.261,5.261,0,0,1-5.349-5.168A5.151,5.151,0,0,1,800.384,537.369Z" transform="translate(-655.82 -462.284)" fill="#009688"/><line y2="35.905" transform="translate(155.899 68.327)" fill="#795548"/><rect width="1.955" height="35.905" transform="translate(154.887 68.327)" fill="url(#f)"/><rect width="1.081" height="35.905" transform="translate(155.357 68.327)" fill="#795548"/><line x1="6.41" y1="6.541" transform="translate(149.597 72.54)" fill="#795548"/><rect width="1.081" height="9.157" transform="matrix(0.714, -0.7, 0.7, 0.714, 149.21, 72.918)" fill="#795548"/><line y1="4.664" x2="6.647" transform="translate(156.007 80.038)" fill="#795548"/><rect width="8.12" height="1.081" transform="translate(155.698 84.254) rotate(-35.06)" fill="#795548"/><g transform="translate(134.454 59.428)"><path d="M792.362,539.4a6.961,6.961,0,0,0-1.438-10.423,4.132,4.132,0,0,0,.652-2.245,3.976,3.976,0,0,0-7.811-1.142,5.912,5.912,0,0,0-5.081-2.934,6.009,6.009,0,0,0-5.94,6.075,6.185,6.185,0,0,0,.363,2.1c-.12,0-.242-.02-.363-.02a4.822,4.822,0,0,0-4.768,4.877,3.354,3.354,0,0,0,.024.492,6.06,6.06,0,0,0-3.58,5.564,5.991,5.991,0,0,0,5.921,6.056,5.813,5.813,0,0,0,1.024-.091c-.017.2-.028.4-.028.611a6.722,6.722,0,0,0,6.643,6.8,6.51,6.51,0,0,0,3.783-1.209,4.876,4.876,0,0,0,3.213,1.209,5.02,5.02,0,0,0,4.964-5.077,2.479,2.479,0,0,0-.017-.361h.017a5.377,5.377,0,0,0,5.316-5.438A5.449,5.449,0,0,0,792.362,539.4Z" transform="translate(-764.419 -522.66)" fill="url(#g)"/></g><path d="M795.005,542.95a6.543,6.543,0,0,0-1.351-9.788,3.87,3.87,0,0,0,.62-2.106,3.733,3.733,0,0,0-7.333-1.072,5.549,5.549,0,0,0-4.774-2.754,5.64,5.64,0,0,0-5.575,5.7,5.807,5.807,0,0,0,.342,1.969c-.113,0-.218-.017-.342-.017a4.526,4.526,0,0,0-4.474,4.568,3.231,3.231,0,0,0,.022.461,5.688,5.688,0,0,0-3.361,5.22,5.622,5.622,0,0,0,5.558,5.684,5.467,5.467,0,0,0,.961-.087q-.026.284-.026.574a6.309,6.309,0,0,0,6.236,6.378,6.11,6.11,0,0,0,3.552-1.135,4.568,4.568,0,0,0,3.015,1.135,4.714,4.714,0,0,0,4.659-4.764,2.225,2.225,0,0,0-.017-.337h.017a5.046,5.046,0,0,0,4.99-5.1A5.114,5.114,0,0,0,795.005,542.95Z" transform="translate(-633.378 -466.808)" fill="#00897b"/><rect width="1.449" height="36.029" transform="translate(150.343 68.862)" fill="url(#c)"/><rect width="0.729" height="35.523" transform="translate(150.754 69.369)" fill="#795548"/><rect width="8.801" height="0.729" transform="translate(150.684 79.827) rotate(-47.2)" fill="#795548"/><rect width="0.729" height="7.722" transform="matrix(0.596, -0.803, 0.803, 0.596, 144.538, 81.326)" fill="#795548"/><rect width="61.34" height="54.597" transform="translate(88.153 51.191)" fill="url(#c)"/><rect width="100.058" height="52.857" transform="translate(47.912 51.191)" fill="#fff"/><path d="M494.888,416.457H396.57V390.79H491.3a3.589,3.589,0,0,1,3.589,3.589Z" transform="translate(-342.13 -360.046)" fill="url(#c)"/><path d="M250.26,146h93.885a3.589,3.589,0,0,1,3.589,3.589v20.4H250.26Z" transform="translate(-195.822 -114.24)" fill="#00b0ff"/><path d="M250.26,146h93.885a3.589,3.589,0,0,1,3.589,3.589v20.4H250.26Z" transform="translate(-195.822 -114.24)" fill="#fff" opacity="0.7"/><path d="M127.193,13.32,93.26,37.216v78.989h67.865V37.216Z" transform="translate(-72.972 -10.42)" fill="url(#c)"/><path d="M166.645,36.814,134.452,13.32,102.26,36.814V56.606h64.385Z" transform="translate(-80.015 -10.42)" fill="#00b0ff"/><path d="M166.645,36.814,134.452,13.32,102.26,36.814V56.606h64.385Z" transform="translate(-80.015 -10.42)" fill="#fff" opacity="0.5"/><rect width="64.385" height="57.859" transform="translate(22.245 46.188)" fill="#fff"/><path d="M145.738,39.99,109.413,14.051,72.653,39.99,70.26,30.867l39.153-28.5,39.153,28.5Z" transform="translate(-54.975 -1.852)" fill="url(#l)"/><path d="M151.251,41.424l-35.993-26.2-35.99,26.2-1.538-8.2L115.258,5.91l37.53,27.311Z" transform="translate(-60.82 -4.622)" fill="#00b0ff"/><path d="M151.251,41.424l-35.993-26.2-35.99,26.2-1.538-8.2L115.258,5.91l37.53,27.311Z" transform="translate(-60.82 -4.622)" opacity="0.2"/><rect width="36.543" height="45.243" transform="translate(36.167 58.804)" fill="#f2f2f2"/><rect width="36.543" height="7.831" transform="translate(36.167 58.804)" fill="#00b0ff"/><rect width="36.543" height="7.831" transform="translate(36.167 96.217)" fill="#00b0ff"/><path d="M676.726,650.653a.326.326,0,1,0-.326-.326A.326.326,0,0,0,676.726,650.653Z" transform="translate(-561.092 -562.873)" fill="lime"/><rect width="17.836" height="33.063" transform="translate(106.642 70.985)" fill="#f2f2f2"/><rect width="16.749" height="12.181" transform="translate(129.046 64.024)" fill="#f2f2f2"/><rect width="16.749" height="5.438" transform="translate(129.046 64.024)" fill="#00b0ff" opacity="0.2"/><g transform="translate(10.658 67.726)"><path d="M197.837,574.673a5.564,5.564,0,0,1-1.523-3.8,5.656,5.656,0,0,1,2.771-4.827,3.278,3.278,0,0,1-.579-1.858A3.437,3.437,0,0,1,202,560.808a3.48,3.48,0,0,1,3.358,2.434,5.245,5.245,0,0,1,4.459-2.43,5.122,5.122,0,0,1,5.207,5.031,4.87,4.87,0,0,1-.32,1.74c.107,0,.218-.015.32-.015a4.11,4.11,0,0,1,4.178,4.037,3.947,3.947,0,0,1-.022.407,5.014,5.014,0,0,1,3.139,4.607,5.1,5.1,0,0,1-5.19,5.014,5.391,5.391,0,0,1-.9-.076c.015.167.024.335.024.507a5.729,5.729,0,0,1-5.823,5.627,5.936,5.936,0,0,1-3.317-1,4.422,4.422,0,0,1-2.817,1,4.285,4.285,0,0,1-4.35-4.2,1.941,1.941,0,0,1,.015-.3h-.015a4.583,4.583,0,0,1-4.659-4.5,4.485,4.485,0,0,1,2.547-4.015Z" transform="translate(-195.29 -560.808)" fill="url(#m)"/></g><path d="M200.4,576.721a5.327,5.327,0,0,1-1.444-3.641,5.405,5.405,0,0,1,2.652-4.62,3.137,3.137,0,0,1-.552-1.779,3.289,3.289,0,0,1,3.345-3.232,3.33,3.33,0,0,1,3.208,2.325,5.018,5.018,0,0,1,4.268-2.325,4.9,4.9,0,0,1,4.983,4.816,4.661,4.661,0,0,1-.3,1.662c.1,0,.2-.015.3-.015a3.94,3.94,0,0,1,4,3.865,3.779,3.779,0,0,1-.02.389,4.8,4.8,0,0,1,3,4.411,4.886,4.886,0,0,1-4.968,4.8,5.156,5.156,0,0,1-.87-.074c.015.159.023.322.023.485a5.483,5.483,0,0,1-5.575,5.386,5.682,5.682,0,0,1-3.163-.962,4.23,4.23,0,0,1-2.695.959,4.1,4.1,0,0,1-4.163-4.024,1.775,1.775,0,0,1,.015-.285h-.015a4.386,4.386,0,0,1-4.459-4.309A4.294,4.294,0,0,1,200.4,576.721Z" transform="translate(-186.729 -495.147)" fill="#009688"/><line y2="29.932" transform="translate(23.118 75.94)" fill="#795548"/><rect width="1.631" height="29.932" transform="translate(22.274 75.94)" fill="url(#c)"/><rect width="0.901" height="29.932" transform="translate(22.665 75.94)" fill="#795548"/><line x1="5.347" y1="5.453" transform="translate(17.862 79.451)" fill="#795548"/><rect width="0.901" height="7.635" transform="matrix(0.714, -0.7, 0.7, 0.714, 17.541, 79.767)" fill="#795548"/><line y1="3.887" x2="5.54" transform="translate(23.209 85.702)" fill="#795548"/><rect width="6.769" height="0.901" transform="translate(22.949 89.218) rotate(-35.06)" fill="#795548"/><g transform="translate(0 67.726)"><path d="M148.837,574.673a5.564,5.564,0,0,1-1.523-3.8,5.655,5.655,0,0,1,2.771-4.827,3.278,3.278,0,0,1-.579-1.858A3.437,3.437,0,0,1,153,560.808a3.48,3.48,0,0,1,3.358,2.434,5.245,5.245,0,0,1,4.459-2.43,5.122,5.122,0,0,1,5.207,5.031,4.87,4.87,0,0,1-.32,1.74c.107,0,.218-.015.32-.015a4.11,4.11,0,0,1,4.178,4.037,3.952,3.952,0,0,1-.022.407,5.014,5.014,0,0,1,3.139,4.607,5.1,5.1,0,0,1-5.19,5.014,5.39,5.39,0,0,1-.9-.076c.015.167.024.335.024.507a5.729,5.729,0,0,1-5.823,5.627,5.936,5.936,0,0,1-3.317-1,4.422,4.422,0,0,1-2.817,1,4.285,4.285,0,0,1-4.35-4.2,1.941,1.941,0,0,1,.015-.3h-.015a4.583,4.583,0,0,1-4.659-4.5A4.485,4.485,0,0,1,148.837,574.673Z" transform="translate(-146.29 -560.808)" fill="url(#m)"/></g><path d="M151.4,576.721a5.327,5.327,0,0,1-1.444-3.641,5.405,5.405,0,0,1,2.652-4.62,3.137,3.137,0,0,1-.552-1.779,3.289,3.289,0,0,1,3.345-3.232,3.33,3.33,0,0,1,3.208,2.325,5.018,5.018,0,0,1,4.268-2.325,4.9,4.9,0,0,1,4.983,4.816,4.661,4.661,0,0,1-.3,1.662c.1,0,.2-.015.3-.015a3.94,3.94,0,0,1,4,3.865,3.779,3.779,0,0,1-.02.389,4.8,4.8,0,0,1,3,4.411,4.886,4.886,0,0,1-4.968,4.8,5.156,5.156,0,0,1-.87-.074c.015.159.023.322.023.485a5.483,5.483,0,0,1-5.575,5.386,5.682,5.682,0,0,1-3.163-.962,4.23,4.23,0,0,1-2.695.959,4.1,4.1,0,0,1-4.163-4.024,1.775,1.775,0,0,1,.015-.285h-.015a4.386,4.386,0,0,1-4.459-4.309A4.294,4.294,0,0,1,151.4,576.721Z" transform="translate(-148.387 -495.147)" fill="#009688"/><line y2="29.932" transform="translate(12.459 75.94)" fill="#795548"/><rect width="1.631" height="29.932" transform="translate(11.615 75.94)" fill="url(#c)"/><rect width="0.901" height="29.932" transform="translate(12.007 75.94)" fill="#795548"/><line x1="5.347" y1="5.453" transform="translate(7.204 79.451)" fill="#795548"/><rect width="0.901" height="7.635" transform="matrix(0.714, -0.7, 0.7, 0.714, 6.885, 79.767)" fill="#795548"/><line y1="3.887" x2="5.54" transform="translate(12.551 85.702)" fill="#795548"/><rect width="6.769" height="0.901" transform="translate(12.291 89.219) rotate(-35.06)" fill="#795548"/><g transform="translate(3.497 67.857)"><path d="M185.665,575.381a5.81,5.81,0,0,0-1.2-8.7,3.437,3.437,0,0,0,.55-1.871,3.315,3.315,0,0,0-6.512-.953,4.929,4.929,0,0,0-4.239-2.447,5,5,0,0,0-4.953,5.064,5.158,5.158,0,0,0,.3,1.74c-.1,0-.2-.016-.3-.016a4.02,4.02,0,0,0-3.978,4.085,2.861,2.861,0,0,0,.02.411,5.068,5.068,0,0,0,1.951,9.686,4.849,4.849,0,0,0,.855-.076c-.015.167-.024.337-.024.509a5.6,5.6,0,0,0,5.538,5.655,5.438,5.438,0,0,0,3.154-1.009,4.065,4.065,0,0,0,2.678,1.009,4.185,4.185,0,0,0,4.133-4.231,1.968,1.968,0,0,0-.015-.3h.015a4.483,4.483,0,0,0,4.431-4.531,4.542,4.542,0,0,0-2.4-4.026Z" transform="translate(-162.369 -561.41)" fill="url(#q)"/></g><path d="M187.913,578.374a5.453,5.453,0,0,0-1.127-8.157,3.226,3.226,0,0,0,.516-1.755,3.11,3.11,0,0,0-6.112-.894,4.627,4.627,0,0,0-3.981-2.3,4.7,4.7,0,0,0-4.637,4.755,4.839,4.839,0,0,0,.285,1.64c-.094,0-.189-.015-.285-.015a3.774,3.774,0,0,0-3.73,3.815,2.511,2.511,0,0,0,.02.385,4.742,4.742,0,0,0-2.8,4.35,4.688,4.688,0,0,0,4.633,4.738,4.561,4.561,0,0,0,.8-.072c-.013.159-.022.318-.022.479a5.258,5.258,0,0,0,5.2,5.316,5.094,5.094,0,0,0,2.96-.946,3.816,3.816,0,0,0,2.51.944,3.928,3.928,0,0,0,3.885-3.972,2.032,2.032,0,0,0-.013-.283h.013a4.207,4.207,0,0,0,4.159-4.255A4.263,4.263,0,0,0,187.913,578.374Z" transform="translate(-161.759 -496.572)" fill="#00897b"/><rect width="1.207" height="30.037" transform="translate(16.744 75.733)" fill="url(#r)"/><rect width="0.607" height="29.615" transform="translate(17.088 76.155)" fill="#795548"/><rect width="7.337" height="0.607" transform="translate(17.036 84.875) rotate(-47.2)" fill="#795548"/><rect width="0.607" height="6.438" transform="matrix(0.596, -0.803, 0.803, 0.596, 11.907, 86.123)" fill="#795548"/><path d="M653.767,265.485a33.277,33.277,0,1,0-5.445,50.69l24.057,25.014a1.618,1.618,0,0,0,2.29.046l5.993-5.762a1.618,1.618,0,0,0,.046-2.29l-24.057-25.014A33.28,33.28,0,0,0,653.767,265.485Zm-7.494,40.223a23.8,23.8,0,1,1,.653-33.656,23.8,23.8,0,0,1-.653,33.656Z" transform="translate(-498.603 -254.001)" fill="url(#s)"/><path d="M661.06,377.85c-2.678,0-2.682,4.159,0,4.159S663.74,377.85,661.06,377.85Z" transform="translate(-547.516 -349.92)" fill="url(#t)"/><path d="M691.167,316.571a19.976,19.976,0,0,0-17.247,8.918c-1.138,1.779,2.093,3.352,3.224,1.581a16.467,16.467,0,0,1,14.3-7.237,18.225,18.225,0,0,1,14.869,8.648c1.138,1.873,4.113.17,2.984-1.692A22.076,22.076,0,0,0,691.167,316.571Z" transform="translate(-558.964 -301.966)" fill="url(#u)"/><path d="M665.767,259.665a33.277,33.277,0,1,0-5.444,50.69l24.057,25.014a1.618,1.618,0,0,0,2.29.046l5.995-5.764a1.618,1.618,0,0,0,.046-2.29l-24.057-25.014A33.28,33.28,0,0,0,665.767,259.665Zm-7.493,40.223a23.8,23.8,0,1,1,.653-33.656A23.8,23.8,0,0,1,658.273,299.888Z" transform="translate(-507.993 -249.447)" fill="#83b33b"/><path d="M673.06,372c-2.678,0-2.682,4.159,0,4.159S675.74,372,673.06,372Z" transform="translate(-556.906 -345.343)" fill="#00b0ff"/><path d="M703.167,310.751a19.976,19.976,0,0,0-17.247,8.918c-1.138,1.779,2.093,3.352,3.224,1.581a16.467,16.467,0,0,1,14.3-7.237,18.226,18.226,0,0,1,14.869,8.648c1.138,1.873,4.113.17,2.984-1.692A22.092,22.092,0,0,0,703.167,310.751Z" transform="translate(-568.354 -297.412)" fill="#00b0ff"/></g><g transform="translate(660.068 1256.172)"><ellipse cx="15.399" cy="15.399" rx="15.399" ry="15.399" transform="translate(0)" fill="#3f3d56"/><ellipse cx="13.243" cy="13.243" rx="13.243" ry="13.243" transform="translate(2.156 2.156)" opacity="0.1"/><path d="M873.957,431.41v-1.927a4.476,4.476,0,0,1-2.57-.84l.4-1.279a4.109,4.109,0,0,0,2.419.82,1.853,1.853,0,0,0,2-1.87c0-1.05-.655-1.7-1.9-2.271-1.714-.763-2.772-1.641-2.772-3.3a3,3,0,0,1,2.537-3.073v-1.927h1.042v1.851a4.087,4.087,0,0,1,2.184.668l-.42,1.26a3.712,3.712,0,0,0-2.117-.649,1.613,1.613,0,0,0-1.781,1.641c0,.992.622,1.488,2.083,2.176,1.73.8,2.6,1.794,2.6,3.492a3.194,3.194,0,0,1-2.654,3.244v1.985Z" transform="translate(-859.193 -408.197)" fill="#13b3f2"/></g></g></svg>