<svg xmlns="http://www.w3.org/2000/svg" xmlns:xlink="http://www.w3.org/1999/xlink" width="154.213" height="140.176" viewBox="0 0 154.213 140.176"><defs><linearGradient id="a" x1="0.871" y1="1" x2="0.871" gradientUnits="objectBoundingBox"><stop offset="0" stop-color="gray" stop-opacity="0.251"/><stop offset="0.54" stop-color="gray" stop-opacity="0.122"/><stop offset="1" stop-color="gray" stop-opacity="0.102"/></linearGradient></defs><g transform="translate(-208.81 -79.74)"><ellipse cx="77.107" cy="5.732" rx="77.107" ry="5.732" transform="translate(208.81 208.451)" fill="#00b0ff" opacity="0.1"/><path d="M400.54,244.483s5.761-7.507,8.9-6.925c0,0-3.492,6.693-8.9,7.69Z" transform="translate(-169.821 -137.049)" fill="#00b0ff"/><path d="M413.72,204.613s5.092-5.757,7.842-5.743c0,0-4.02,7.69-8.052,7.62Z" transform="translate(-180.095 -106.428)" fill="#00b0ff"/><path d="M420.416,151.141l4.918-11.991s.247,10.839-5.543,14.215Z" transform="translate(-185.07 -59.121)" fill="#00b0ff"/><path d="M323.764,524.29Z" transform="translate(-106.933 -364.211)" fill="#00b0ff"/><path d="M324.755,492.06Z" transform="translate(-107.646 -338.68)" fill="#00b0ff"/><path d="M405.915,193.942s-.019-7.69-2.091-9.492c0,0-2.064,8.424,1.008,11.041Z" transform="translate(-171.885 -95.006)" fill="#00b0ff"/><rect width="89.654" height="133.308" rx="9.8" transform="translate(228.333 79.74)" fill="#3a3768"/><rect width="74.353" height="26.207" rx="13.104" transform="translate(236.539 91.199)" opacity="0.1"/><rect width="73.226" height="25.347" rx="10.2" transform="translate(237.017 91.71)" fill="#e6e8ec"/><rect width="14.786" height="16.428" rx="7.393" transform="translate(239.128 128.322)" opacity="0.1"/><rect width="14.786" height="16.428" rx="7.393" transform="translate(257.201 128.322)" opacity="0.1"/><rect width="14.786" height="16.428" rx="7.393" transform="translate(275.273 128.322)" opacity="0.1"/><rect width="14.786" height="16.428" rx="7.393" transform="translate(293.345 128.671)" opacity="0.1"/><rect width="14.786" height="16.428" rx="7.393" transform="translate(293.345 128.322)" fill="#00b0ff"/><rect width="14.786" height="16.428" rx="7.393" transform="translate(239.128 146.394)" opacity="0.1"/><rect width="14.786" height="16.428" rx="7.393" transform="translate(257.201 146.394)" opacity="0.1"/><rect width="14.786" height="16.428" rx="7.393" transform="translate(275.273 146.394)" opacity="0.1"/><rect width="14.786" height="16.428" rx="7.393" transform="translate(239.128 166.343)" opacity="0.1"/><rect width="14.786" height="16.428" rx="7.393" transform="translate(257.201 166.343)" opacity="0.1"/><rect width="14.786" height="16.428" rx="7.393" transform="translate(275.273 166.343)" opacity="0.1"/><rect width="14.786" height="16.428" rx="7.393" transform="translate(275.273 186.292)" opacity="0.1"/><rect width="14.786" height="16.428" rx="7.393" transform="translate(293.345 146.743)" opacity="0.1"/><rect width="14.786" height="16.428" rx="7.393" transform="translate(293.345 146.394)" fill="#00b0ff"/><rect width="14.786" height="16.428" rx="7.393" transform="translate(293.345 146.394)" opacity="0.2"/><rect width="32.858" height="16.428" rx="8.214" transform="translate(239.128 186.292)" opacity="0.1"/><rect width="16.193" height="36.379" rx="8.097" transform="translate(291.936 166.343)" opacity="0.1"/><rect width="6.472" height="0.7" transform="translate(300.483 112.63)" fill="#00b0ff"/><rect width="6.472" height="0.7" transform="translate(291.007 112.63)" fill="#00b0ff"/><rect width="6.472" height="0.7" transform="translate(281.529 112.63)" fill="#00b0ff"/><rect width="6.472" height="0.7" transform="translate(272.053 112.63)" fill="#00b0ff"/><path d="M802.962,418.6a8.818,8.818,0,0,0,0-4.489v-2.118a7.4,7.4,0,0,0-2.642-6.8l-2.257-1.991a8.423,8.423,0,0,0-1.634-1.156,1.657,1.657,0,0,0-.208-.031l-.067-.039a6.8,6.8,0,0,1-.495-1.039.963.963,0,0,0,.8-.274,1.04,1.04,0,0,0,.189-.318h0c.131-.293.154-.648.264-.96a2.287,2.287,0,0,1,.416-.69c-.023.037-.048.073-.069.112.32-.4.738-.74,1.039-1.16a2.6,2.6,0,0,0,.164-.26c-.012.019-.029.035-.044.054a5.91,5.91,0,0,0,.663-2.255,2.029,2.029,0,0,0,.012-.806,2.937,2.937,0,0,0-.224-.511c-.491-1.012-.482-2.286-1.266-3.095a3.814,3.814,0,0,0-2.326-.894,6.043,6.043,0,0,1-2.451-.6,2.585,2.585,0,0,0-.663-.364.545.545,0,0,0-.651.241.429.429,0,0,1-.087.177.283.283,0,0,1-.249.015l-1.12-.3.013.056h-.029l.042.177a.1.1,0,0,1,.106.06l-.181.279a2.807,2.807,0,0,1-1.01-.208.229.229,0,0,0,0,.054h-.017c-.021.316.339.522.449.819a.624.624,0,0,1,0,.4.879.879,0,0,1-.208.32c-.4.393-.906.316-1.363.563a.3.3,0,0,0-.166.185.135.135,0,0,0-.015.1.241.241,0,0,0,.094.116,2.077,2.077,0,0,0,.434.27c-.046.042-.089.083-.131.127a5.009,5.009,0,0,0,1.731,8.172c.017.087.029.177.042.27v.027l.012.121-1.509.642a1.2,1.2,0,0,1-1.081-.7c-.351-.725-1.592,0-1.592,0s-3.785-.283-5.2.416c0,0-2.259-.948-2.577-1.012s-.794-.316-1.016-.252-.509-.416-.669-.38-.222-.316-.732-.443-.7.033-1.272-.536A50.516,50.516,0,0,0,769,395.884l-2.087-1.717-2.226-1.771-.039.073c-.015-.052-.029-.106-.044-.164a21.328,21.328,0,0,0-.831-2.6c-.143-.343-.208-.775-.4-.547-.118.137-.32-.164-.623-.368a.526.526,0,0,0-.784.229h0c-1.733,2.719-2.355,2.91-1.351,3.91.9.888,1.49,1.663,2.22,1.908l.087.027a.092.092,0,0,1-.048,0l4.232,5.059a25.3,25.3,0,0,0,5.155,3.508c2.1.852,1.939,1.108,1.939,1.108s6.364,3.224,7.349,3.161.8,6.607.382,7.69-1.081,8.852-1.081,8.852a3.7,3.7,0,0,0,.031,2.781,17.56,17.56,0,0,1,.015,2.7,9.287,9.287,0,0,0-1.542,3.972,2.313,2.313,0,0,1-.025.241.562.562,0,0,1-.15.123l.141-.042a8,8,0,0,1-.416,1.908,7.755,7.755,0,0,0-.526,2.714v5.022l-.416,3.118s-.509,2.359,0,2.91a1.347,1.347,0,0,1,.279.969,1.8,1.8,0,0,0,.324,1.131.846.846,0,0,1,.208.725c-.168.547.249,6.364.249,6.364a6.468,6.468,0,0,1-.291,1.688c-.168.085.291,1.854.291,1.854s-1.719,1.434-1.28,2.193l.439.673-.116.114-.071.073a.677.677,0,0,0-.438-.083,16.761,16.761,0,0,1-1.729,1.54,18.775,18.775,0,0,1-2.885,1.37l-1.663.135h-.031s-.8-.075-.349,1.158,4.442.854,4.442.854l2.332-.368a44.336,44.336,0,0,0,5.348-.243c.5-.11.624-.376.582-.644h0l-.013-.012a1.663,1.663,0,0,0-.341-.7.268.268,0,0,0-.029-.037l.075-.852c1.765-1.016-.5-3.016-.5-3.016a20.929,20.929,0,0,1,1.172-2.232c.4-.547.4-8.6.4-8.6s.208-2.91-.339-3.583a1.212,1.212,0,0,1,.594-1.1c.393-.268,1.58-3.962,2.511-7.027l.586,3.612a5.142,5.142,0,0,0,.254,2.234.861.861,0,0,1,.158.673,3.034,3.034,0,0,0,.085,1.455.962.962,0,0,0,.31.52c.339.168.36.769.486.9s.912-.179.954.285a10.493,10.493,0,0,1,0,1.222l.256,7.5a4.984,4.984,0,0,0-.509,2.286,2.941,2.941,0,0,1-.306,1.343.688.688,0,0,0,.062.806l.073.085-.314.241a.692.692,0,0,0-.2.854.671.671,0,0,0-.193.727.506.506,0,0,0,.054.118,1.18,1.18,0,0,0-.634.314,5.2,5.2,0,0,1-1.12,1.127,21.552,21.552,0,0,0-1.785,1.53,2.565,2.565,0,0,1-1.039.831,1.719,1.719,0,0,1-.314.094c-.831.17-.572,1.039.106,1.183a11.3,11.3,0,0,0,4.677.43,1.652,1.652,0,0,0,1.282-.179,18.841,18.841,0,0,1,2.465-.86s.954,0,1.083-.378a1.487,1.487,0,0,0,.054-.37l.027-.027-.025-.023a5.04,5.04,0,0,0-.064-.846c-.025-.146-.052-.274-.077-.378-.081-.316-.233-.725-.3-.9a.314.314,0,0,0,.029-.044c.364-.624-.241-2.1-.241-2.1a4.031,4.031,0,0,1,.717-.85c.339-.254,1.23-6.83,1.23-6.83a5.97,5.97,0,0,1,.416-2.444c.459-.759-.636-5.352-.636-5.352s-.468-1.054-.3-1.434a5.041,5.041,0,0,0-.17-1.771v-1.663a1.838,1.838,0,0,0-.1-.582,2.756,2.756,0,0,1-.114-1.679c.3-.759.975-5.437.975-5.437a6.261,6.261,0,0,1,.247-3.708,3.219,3.219,0,0,1,.208-.38c.576-.9.4-2.511.119-3.806-.042-.208-.089-.395-.137-.576-.019-.079-.039-.154-.06-.229l.091-.037a2.7,2.7,0,0,1,.029-.333,2.337,2.337,0,0,0,1.53-1.058,17.109,17.109,0,0,1,3.658-3.1,3.181,3.181,0,0,0,1.846-2.245c-.254-.443.455-2.245.455-2.245ZM796.2,402.051Zm1.166,19.461-1.837,2.13v-.012c-.478-.665.445-2.151.445-2.151l1.528-3.409a1.929,1.929,0,0,1-.208,1c-.416.569.765,1.519.765,1.519C797.425,420.6,797.362,421.512,797.362,421.512Z" transform="translate(-454.675 -256.804)" fill="url(#a)"/><path d="M766.8,396.278l-1,1.948a3.952,3.952,0,0,1-.933-.2,3.533,3.533,0,0,1-2.193-1.9,2.757,2.757,0,0,1,1.276-3.635c.69-.378,1.332-.809,1.85.432a21.471,21.471,0,0,1,.813,2.579C766.733,395.967,766.8,396.278,766.8,396.278Z" transform="translate(-456.465 -259.503)" fill="#cc818c"/><path d="M906.848,437.124l-1.6,2.386s-7.572,3.612-6.125-.624a9.519,9.519,0,0,0,.6-4.182v-.027a3.363,3.363,0,0,0-.594-1.7s7.381-3.779,6.281-1.2a3.557,3.557,0,0,0-.26,1.7,5.794,5.794,0,0,0,.794,2.359,7.842,7.842,0,0,0,.91,1.278Z" transform="translate(-564.627 -290.219)" fill="#cc818c"/><path d="M861.548,603.211s1.089,4.573.624,5.319a5.778,5.778,0,0,0-.416,2.43s-.879,6.535-1.214,6.784a3.993,3.993,0,0,0-.713.831s.6,1.48.239,2.091a.507.507,0,0,1-.239.208c-.561.237-2.635-.815-3.816-1.455a.673.673,0,0,1-.121-1.1.686.686,0,0,1,.191-.848l.312-.241-.073-.085a.688.688,0,0,1-.062-.8,2.911,2.911,0,0,0,.3-1.332,4.88,4.88,0,0,1,.5-2.261l-.251-7.458a10.377,10.377,0,0,0,0-1.214c-.042-.459-.817-.156-.942-.283s-.148-.721-.482-.89a.953.953,0,0,1-.3-.517,2.99,2.99,0,0,1-.085-1.455.858.858,0,0,0-.156-.669,5.126,5.126,0,0,1-.251-2.218l-.578-3.592c-.921,3.047-2.091,6.718-2.48,6.984a1.208,1.208,0,0,0-.586,1.087c.545.671.335,3.563.335,3.563s0,8-.393,8.545a20.681,20.681,0,0,0-1.154,2.228s2.245,2,.478,3.005H850.2c-1.8,1.006-5.529-1.8-5.529-1.8l.389-.389.114-.114-.441-.657c-.432-.754,1.264-2.178,1.264-2.178s-.453-1.76-.287-1.844a6.439,6.439,0,0,0,.287-1.675s-.416-5.78-.245-6.325a.852.852,0,0,0-.208-.721,1.794,1.794,0,0,1-.32-1.122,1.334,1.334,0,0,0-.276-.962c-.5-.545,0-2.889,0-2.889l.416-3.1v-4.924a7.849,7.849,0,0,1,.526-2.779,8.313,8.313,0,0,0,.457-2.23,9.351,9.351,0,0,1,1.565-4.009c.3-.466.53-.744.53-.744l13.4-.524s.208.6.432,1.426c.046.181.091.372.135.572.281,1.289.449,2.885-.118,3.783a3.533,3.533,0,0,0-.208.378,6.262,6.262,0,0,0-.243,3.685s-.669,4.647-.962,5.4a2.715,2.715,0,0,0,.114,1.663,1.891,1.891,0,0,1,.094.58v1.657a5.04,5.04,0,0,1,.168,1.76C861.084,602.166,861.548,603.211,861.548,603.211Z" transform="translate(-521.633 -409.039)" fill="#444053"/><path d="M923.533,594.913a3.187,3.187,0,0,0-.208.376l-.755-.042c.073-.389-.441-4.032-.441-4.032l1.519-.085C923.93,592.417,924.1,594.013,923.533,594.913Z" transform="translate(-583.001 -417.159)" opacity="0.1"/><path d="M924.133,594.3a3.516,3.516,0,0,0-.208.378l-.754-.044c.073-.387-.441-4.032-.441-4.032l1.519-.085C924.532,591.809,924.7,593.4,924.133,594.3Z" transform="translate(-583.476 -416.676)" fill="#444053"/><path d="M924.133,594.3a3.516,3.516,0,0,0-.208.378l-.754-.044c.073-.387-.441-4.032-.441-4.032l1.519-.085C924.532,591.809,924.7,593.4,924.133,594.3Z" transform="translate(-583.476 -416.676)" opacity="0.05"/><path d="M902.149,766.109a.507.507,0,0,1-.239.208c-.561.237-2.635-.815-3.816-1.455a.68.68,0,0,1-.314-.374c.673-.123,1.114.624,1.114.624a.993.993,0,0,1,1.382.335c.576.848,1.81.49,1.81.49Z" transform="translate(-563.711 -554.474)" opacity="0.1"/><path d="M882.3,769.176c-.125.378-1.068.378-1.068.378a20.11,20.11,0,0,0-2.44.858,1.668,1.668,0,0,1-1.266.179,11.208,11.208,0,0,1-4.618-.43c-.669-.137-.931-1-.1-1.172a1.674,1.674,0,0,0,.31-.1,2.528,2.528,0,0,0,1.039-.831,21.28,21.28,0,0,1,1.765-1.519,5.156,5.156,0,0,0,1.106-1.12,1.067,1.067,0,0,1,1.686.324.994.994,0,0,1,1.382.337c.576.848,1.81.488,1.81.488s.222.567.326.975c.025.1.052.233.077.378A3.434,3.434,0,0,1,882.3,769.176Z" transform="translate(-543.52 -554.974)" fill="#ff748f"/><circle cx="0.114" cy="0.114" r="0.114" transform="translate(335.789 211.325)" fill="#575988"/><circle cx="0.114" cy="0.114" r="0.114" transform="translate(334.806 212.246)" fill="#575988"/><circle cx="0.114" cy="0.114" r="0.114" transform="translate(333.807 213.073)" fill="#575988"/><circle cx="0.114" cy="0.114" r="0.114" transform="translate(334.324 212.703)" fill="#575988"/><circle cx="0.114" cy="0.114" r="0.114" transform="translate(335.32 211.758)" fill="#575988"/><path d="M882.3,779.905c-.125.378-1.068.378-1.068.378a20.106,20.106,0,0,0-2.44.858,1.668,1.668,0,0,1-1.266.179,11.209,11.209,0,0,1-4.618-.43c-.669-.137-.931-1-.1-1.172a1.665,1.665,0,0,0,.31-.1,8.039,8.039,0,0,0,2.266.43c1.706.073,3.057,0,3.057,0l1.727-.555a2.885,2.885,0,0,1,1.068-.387,2.794,2.794,0,0,0,1.062-.461A3.262,3.262,0,0,1,882.3,779.905Z" transform="translate(-543.52 -565.704)" fill="#dce6f2"/><path d="M898.7,783.935a1.432,1.432,0,0,1-.287-.027l.025-.123a1.829,1.829,0,0,0,1.039-.145c.154-.06.308-.133.457-.208a5.742,5.742,0,0,1,.547-.237l.17-.058c.094-.033.189-.064.281-.1.052-.021.1-.046.154-.071a1.767,1.767,0,0,1,.387-.148,1.919,1.919,0,0,1,.208-.027,1.862,1.862,0,0,0,.191-.023,1.8,1.8,0,0,0,.364-.135,1.761,1.761,0,0,1,.391-.145l.091-.015a.447.447,0,0,0,.27-.1l.094.085a.564.564,0,0,1-.343.139l-.087.015a1.678,1.678,0,0,0-.364.135,1.919,1.919,0,0,1-.391.143,1.4,1.4,0,0,1-.208.025,1.847,1.847,0,0,0-.2.025,1.664,1.664,0,0,0-.36.139l-.158.073c-.1.04-.2.073-.291.106l-.166.058c-.183.067-.362.152-.536.233s-.308.146-.466.208A2.265,2.265,0,0,1,898.7,783.935Z" transform="translate(-564.211 -568.65)" fill="#575988" opacity="0.5"/><path d="M901.73,684.385a3.109,3.109,0,0,1,2.357-1.247,9.4,9.4,0,0,0,2.124-.168,5.318,5.318,0,0,1-1.611.638A28.142,28.142,0,0,0,901.73,684.385Z" transform="translate(-566.841 -489.91)" opacity="0.1"/><path d="M904.15,688.8a3.5,3.5,0,0,1,1.235-.565c.449-.021.831-.062.831-.062a2.4,2.4,0,0,1-.69.335C905.158,688.609,904.15,688.8,904.15,688.8Z" transform="translate(-568.758 -494.03)" opacity="0.1"/><path d="M905,693s1.183.094,1.193.416" transform="translate(-569.431 -497.856)" opacity="0.1"/><path d="M851.93,599.556a4.69,4.69,0,0,0,1.193-1.538,1.076,1.076,0,0,1,.459-.678s.682.272.075,1.108A3.365,3.365,0,0,1,851.93,599.556Z" transform="translate(-527.391 -422.078)" opacity="0.1"/><path d="M906.045,431.767c-.241.569-.453.624-.416,1.166a4.158,4.158,0,0,1-.958.754c-.748.445-1.563,1.316-2.494,1.316a4.97,4.97,0,0,1-1.823-.345,3.364,3.364,0,0,0-.594-1.7S907.143,429.183,906.045,431.767Z" transform="translate(-565.28 -290.203)" opacity="0.1"/><path d="M897.417,406.528a4.988,4.988,0,1,1-4.988-4.988A4.988,4.988,0,0,1,897.417,406.528Z" transform="translate(-555.521 -266.974)" fill="#cc818c"/><path d="M906.848,451.689l-1.6,2.386s-7.572,3.612-6.125-.624a9.519,9.519,0,0,0,.6-4.182h.013a4.009,4.009,0,0,1,.152.962c.023.653.04,1.478,1.663,1.75a4.515,4.515,0,0,0,4.4-1.565A7.832,7.832,0,0,0,906.848,451.689Z" transform="translate(-564.627 -304.784)" opacity="0.1"/><path d="M775.894,409.112l-1,1.948a3.953,3.953,0,0,1-.933-.2l-.087-.1c.416.158,1.789-2.451,1.789-2.451l.044.035C775.824,408.8,775.894,409.112,775.894,409.112Z" transform="translate(-465.556 -272.337)" opacity="0.1"/><path d="M874.44,582.336c-3.234,1.405-14.42.208-14.42.208a1.531,1.531,0,0,0,.056-.366c.3-.466.53-.744.53-.744l13.4-.524S874.226,581.506,874.44,582.336Z" transform="translate(-533.8 -409.063)" opacity="0.1"/><path d="M801.132,417.447l-1.492.638a1.183,1.183,0,0,1-1.066-.692c-.347-.721-1.571,0-1.571,0s-3.741-.283-5.121.416c0,0-2.23-.944-2.544-1.006s-.786-.314-1.006-.251-.5-.416-.659-.376-.22-.314-.723-.441-.69.031-1.247-.534a49.1,49.1,0,0,0-5.153-2.8l-2.078-1.7-2.2-1.758s-1.382,2.606-1.792,2.448l4.178,5.028a25.058,25.058,0,0,0,5.09,3.486c2.074.848,1.916,1.1,1.916,1.1s6.283,3.2,7.256,3.143.79,6.558.374,7.626-1.066,8.8-1.066,8.8a3.735,3.735,0,0,0,.031,2.764,15.8,15.8,0,0,1,0,2.733s11.255,1.2,14.449-.22c0,0,.472-5.215,0-5.874s.441-2.128.441-2.128l2.01-4.492,4.9-4.932a7.378,7.378,0,0,0-2.608-6.753l-2.23-1.981a8.257,8.257,0,0,0-1.613-1.147c-.366-.069-.231,0-.231,0a4.5,4.5,0,0,1-4.44,1.619c-1.617-.272-1.634-1.1-1.663-1.748A4.075,4.075,0,0,0,801.132,417.447Z" transform="translate(-466.039 -272.844)" fill="#67647e"/><path d="M900.653,531.19s-6.913.283-8.293,2.455a6.807,6.807,0,0,1,3.392-.6C897.352,533.3,900.653,531.19,900.653,531.19Z" transform="translate(-559.418 -369.677)" opacity="0.1"/><path d="M895.53,561.621s3.267.22,3.959-.472.694-1.1.694-1.1Z" transform="translate(-561.929 -392.539)" opacity="0.1"/><path d="M931.361,499.14s-2.766,3.267.6,4.681Z" transform="translate(-589.465 -344.289)" opacity="0.1"/><path d="M856.69,468.77s1.006,2.051,1.509,2.187Z" transform="translate(-531.162 -320.231)" opacity="0.1"/><path d="M840.37,464.53a37.2,37.2,0,0,0,2.985,2.482S840.746,464.53,840.37,464.53Z" transform="translate(-518.234 -316.872)" opacity="0.1"/><path d="M883.326,454.11s-2.419,3.612-.848,5.82A7.827,7.827,0,0,1,883.326,454.11Z" transform="translate(-551.17 -308.618)" opacity="0.1"/><path d="M888.06,578.09l-.74.7-.1.1-.856.811c-.06.046-.121.091-.183.133-3.486,2.494-4.184-1.3-4.184-1.3s-1.538,1.006-1.758.189,3.581-1.979,4.157-1.916a.742.742,0,0,0,.152,0,2.378,2.378,0,0,0,.781-.276l.168-.089q.29-.164.563-.355Z" transform="translate(-549.806 -405.237)" fill="#cc818c"/><path d="M903.371,406.518a4.988,4.988,0,0,1-2.432,4.294,2.848,2.848,0,0,1-.183-.364c-.179-.416-.289-.865-.47-1.282a3.949,3.949,0,0,0-.831-1.222.53.53,0,0,0-.222-.154.6.6,0,0,0-.457.127,2.1,2.1,0,0,1-.7.306.74.74,0,0,1-.7-.208,1.045,1.045,0,0,1-.112-.871,10.854,10.854,0,0,0,.328-1.952,1.91,1.91,0,0,0-.831-1.7,7.454,7.454,0,0,0-1.7-.37,1.855,1.855,0,0,1-.256-.087,4.988,4.988,0,0,1,8.561,3.484Z" transform="translate(-561.359 -266.964)" opacity="0.1"/><path d="M892.535,394.779c-.089.048-.189.135-.162.235a.237.237,0,0,0,.091.116,2.181,2.181,0,0,0,.79.405,7.052,7.052,0,0,1,1.7.37,1.926,1.926,0,0,1,.831,1.7,10.977,10.977,0,0,1-.326,1.95,1.048,1.048,0,0,0,.11.873.746.746,0,0,0,.7.208,2.078,2.078,0,0,0,.7-.3.6.6,0,0,1,.459-.129.565.565,0,0,1,.222.154,3.95,3.95,0,0,1,.831,1.224c.183.416.291.863.47,1.282a2.078,2.078,0,0,0,.831,1.039,1.048,1.048,0,0,0,1.26-.133c.308-.341.283-.809.428-1.218.249-.713.946-1.16,1.382-1.775a5.58,5.58,0,0,0,.757-2.4,1.971,1.971,0,0,0,.013-.8,2.883,2.883,0,0,0-.22-.507c-.486-1.006-.476-2.272-1.247-3.074a3.745,3.745,0,0,0-2.3-.89,5.918,5.918,0,0,1-2.417-.6,2.631,2.631,0,0,0-.655-.362.536.536,0,0,0-.644.241.428.428,0,0,1-.085.175.276.276,0,0,1-.247.015l-1.106-.3.127.557a2.769,2.769,0,0,1-1.174-.208c-.021.316.335.52.445.815a.754.754,0,0,1-.208.765C893.489,394.609,892.988,394.532,892.535,394.779Z" transform="translate(-559.425 -259.507)" fill="#585268"/><path d="M850.293,759.628l-.046.5h-.019c-1.8,1.006-5.529-1.8-5.529-1.8l.389-.389a.678.678,0,0,1,.17.526l.761.042.91.983a17.294,17.294,0,0,0,3.13.127Z" transform="translate(-521.664 -549.298)" opacity="0.1"/><path d="M823.969,762.343a43.575,43.575,0,0,1-5.277.243l-2.3.364s-3.949.378-4.388-.848.345-1.149.345-1.149h.031l1.644-.133a18.817,18.817,0,0,0,2.85-1.361,16.552,16.552,0,0,0,1.706-1.53s.686-.133.673.661l.761.042.91.985a17.147,17.147,0,0,0,3.13.125h.233l-.106,1.216.029.035C824.367,761.183,825.017,762.11,823.969,762.343Z" transform="translate(-495.656 -549.282)" fill="#ff748f"/><circle cx="0.114" cy="0.114" r="0.114" transform="translate(323.948 209.899)" fill="#575988"/><circle cx="0.114" cy="0.114" r="0.114" transform="translate(320.995 211.18)" fill="#575988"/><circle cx="0.114" cy="0.114" r="0.114" transform="translate(319.473 211.641)" fill="#575988"/><circle cx="0.114" cy="0.114" r="0.114" transform="translate(321.77 210.935)" fill="#575988"/><circle cx="0.114" cy="0.114" r="0.114" transform="translate(320.232 211.41)" fill="#575988"/><circle cx="0.114" cy="0.114" r="0.114" transform="translate(322.554 210.571)" fill="#575988"/><circle cx="0.114" cy="0.114" r="0.114" transform="translate(323.329 210.234)" fill="#575988"/><path d="M823.969,773.9a43.566,43.566,0,0,1-5.277.243l-2.3.364s-3.949.378-4.388-.848.345-1.149.345-1.149h.031a2.114,2.114,0,0,0,1.748.715l2.839.114,2.941-.208s2.756-.081,3.2-.177a6.554,6.554,0,0,0,1.1-.4C824.367,772.737,825.017,773.664,823.969,773.9Z" transform="translate(-495.656 -560.836)" fill="#dce6f2"/><path d="M832.916,776.7a1.705,1.705,0,0,1-.466-.058l.033-.121a2.308,2.308,0,0,0,1.168-.052c.139-.037.276-.077.416-.118a6.579,6.579,0,0,1,.767-.193,6.356,6.356,0,0,1,1.264-.037h.089a19.455,19.455,0,0,0,3.77-.168,1.411,1.411,0,0,0,.806-.324l.089.089a1.53,1.53,0,0,1-.875.36,19.561,19.561,0,0,1-3.8.168h-.091a4.67,4.67,0,0,0-2,.227c-.139.042-.279.083-.416.118A3.163,3.163,0,0,1,832.916,776.7Z" transform="translate(-511.96 -563.311)" fill="#575988" opacity="0.5"/><path d="M908.1,578.082l-.74.7-1.837-2.353a6.634,6.634,0,0,0,.563-.355Z" transform="translate(-569.843 -405.229)" opacity="0.1"/><path d="M915.984,493l1.455,2.01v2.106a8.813,8.813,0,0,1,0,4.46l.071,1.948s-.7,1.79-.449,2.23a3.15,3.15,0,0,1-1.821,2.23,17.12,17.12,0,0,0-3.621,3.068,2.463,2.463,0,0,1-2.671,1.068l-1.854.786-2.135-2.733,2.889-1.571s1.006-1.349,1.6-1.287l2.451-2.86s.062-.91.69-.91c0,0-1.162-.942-.755-1.507s.064-3.08.064-3.08Z" transform="translate(-569.399 -339.425)" fill="#67647e"/><path d="M945,536.814s3.3-.062,3.706.786S946,536.342,945,536.814Z" transform="translate(-601.117 -374.077)" opacity="0.1"/><path d="M903.638,580.4a.86.86,0,0,1-.015.164,1.11,1.11,0,0,1-1.039.944h-.058a1.11,1.11,0,0,1-1.11-1.11,1.079,1.079,0,0,1,.062-.359,1.9,1.9,0,0,1-.538-1.559,2.379,2.379,0,0,0,.781-.276,5.166,5.166,0,0,0,.547,1.116,1.167,1.167,0,0,1,.258-.031A1.112,1.112,0,0,1,903.638,580.4Z" transform="translate(-566.213 -406.916)" opacity="0.1"/><path d="M902.3,577s-.744.168-.744.3-.168,1.361.648,1.871.734-.7.734-.7S902.235,577.395,902.3,577Z" transform="translate(-566.691 -405.966)" fill="#575988"/><circle cx="1.11" cy="1.11" r="1.11" transform="translate(335.328 172.371)" fill="#e4aab4"/><circle cx="0.952" cy="0.952" r="0.952" transform="translate(335.486 172.529)" fill="#dce6f2"/><path d="M888.315,590.84a5.5,5.5,0,0,0,5.36.711v.944s-2.01,1.382-3.831.544S888.315,590.84,888.315,590.84Z" transform="translate(-556.2 -416.929)" opacity="0.1"/><path d="M888.315,589.63a5.493,5.493,0,0,0,5.36.711v.944s-2.01,1.382-3.831.545S888.315,589.63,888.315,589.63Z" transform="translate(-556.2 -415.971)" opacity="0.1"/><path d="M888.315,589.63a5.493,5.493,0,0,0,5.36.711v.944s-2.01,1.382-3.831.545S888.315,589.63,888.315,589.63Z" transform="translate(-556.2 -415.971)" fill="#444053"/><path d="M888.614,589.63a5.5,5.5,0,0,0,5.363.711v.944s-2.01,1.382-3.833.545S888.614,589.63,888.614,589.63Z" transform="translate(-556.437 -415.971)" opacity="0.05"/><path d="M852.91,757.94s3.143.578,3.6.7-.125.345-.125.345S853.519,758.474,852.91,757.94Z" transform="translate(-528.168 -549.298)" opacity="0.1"/><path d="M852.56,743.87c.052,0,2.137-.586,2.586-1.59" transform="translate(-527.89 -536.893)" opacity="0.1"/><path d="M867.19,692.1s.844,1.11,1.388,1.079S867.685,692.054,867.19,692.1Z" transform="translate(-539.48 -497.138)" opacity="0.1"/><path d="M869.44,701s.355.784.879.532" transform="translate(-541.262 -504.193)" opacity="0.1"/><path d="M879,617.966l2.228,5.876s.314-3.781-.349-4.911A1.96,1.96,0,0,0,879,617.966Z" transform="translate(-548.835 -438.41)" opacity="0.05"/><g transform="translate(332.93 132.818)" opacity="0.1"><path d="M903.906,393.311l-.019-.085-.357-.1.039.175A3.024,3.024,0,0,0,903.906,393.311Z" transform="translate(-901.196 -393.13)"/><path d="M898.9,396.115l.037-.033a.752.752,0,0,0,.208-.765,1.007,1.007,0,0,0-.179-.285,2.939,2.939,0,0,1-.515-.152c-.021.314.332.518.443.813a.623.623,0,0,1,.006.422Z" transform="translate(-897.169 -394.516)"/><path d="M899.97,413.711a2.078,2.078,0,0,1-.842-1.039c-.177-.416-.287-.865-.468-1.28a3.948,3.948,0,0,0-.831-1.224.544.544,0,0,0-.222-.154.607.607,0,0,0-.457.127,2.1,2.1,0,0,1-.7.306.744.744,0,0,1-.7-.208,1.05,1.05,0,0,1-.112-.873,10.815,10.815,0,0,0,.328-1.95,1.91,1.91,0,0,0-.831-1.7,7.455,7.455,0,0,0-1.7-.37,2.188,2.188,0,0,1-.792-.405.374.374,0,0,1-.042-.039,1.036,1.036,0,0,0-.137.064c-.091.048-.189.135-.164.235a.254.254,0,0,0,.094.116,2.164,2.164,0,0,0,.79.405,7.037,7.037,0,0,1,1.7.37,1.926,1.926,0,0,1,.831,1.7,10.8,10.8,0,0,1-.328,1.95,1.049,1.049,0,0,0,.112.873.744.744,0,0,0,.7.208,2.078,2.078,0,0,0,.7-.3.6.6,0,0,1,.457-.129.55.55,0,0,1,.222.154,3.993,3.993,0,0,1,.831,1.224c.183.416.291.863.47,1.282a2.079,2.079,0,0,0,.831,1.039,1.028,1.028,0,0,0,1.247-.133.977.977,0,0,0,.187-.316A1.072,1.072,0,0,1,899.97,413.711Z" transform="translate(-892.301 -402.454)"/><path d="M937.84,434.229c.314-.4.727-.736,1.023-1.151.058-.083.112-.17.162-.258A10.207,10.207,0,0,0,937.84,434.229Z" transform="translate(-928.375 -424.571)"/></g></g></svg>