<svg xmlns="http://www.w3.org/2000/svg" width="191.094" height="143.376" viewBox="0 0 191.094 143.376"><g transform="translate(-101.906 -247.721)"><ellipse cx="10.351" cy="10.987" rx="10.351" ry="10.987" transform="translate(212.999 351.607)" fill="#fbd56f"/><ellipse cx="10.351" cy="10.987" rx="10.351" ry="10.987" transform="translate(212.999 351.607)" opacity="0.1"/><ellipse cx="10.351" cy="10.742" rx="10.351" ry="10.742" transform="translate(214.786 352.096)" fill="#fbd56f"/><path d="M601.449,747.113l-1.077-.6a13.042,13.042,0,0,0-.339,3.6.746.746,0,0,0,.561.644c2.477.615,14.282,3.236,22.4-.455a.745.745,0,0,0,.431-.6,11.153,11.153,0,0,0-.394-3.19C622.728,745.717,601.449,747.113,601.449,747.113Z" transform="translate(-372.12 -374.539)" fill="#fbd56f"/><path d="M601.449,747.113l-1.077-.6a13.042,13.042,0,0,0-.339,3.6.746.746,0,0,0,.561.644c2.477.615,14.282,3.236,22.4-.455a.745.745,0,0,0,.431-.6,11.153,11.153,0,0,0-.394-3.19C622.728,745.717,601.449,747.113,601.449,747.113Z" transform="translate(-372.12 -374.539)" opacity="0.1"/><ellipse cx="11.329" cy="2.554" rx="11.329" ry="2.554" transform="translate(228.252 369.42)" fill="#fbd56f"/><path d="M617.154,733.441l-1.077-.6a13.043,13.043,0,0,0-.339,3.6.746.746,0,0,0,.561.644c2.477.615,14.282,3.236,22.4-.455a.745.745,0,0,0,.431-.6,11.152,11.152,0,0,0-.394-3.19C638.434,732.046,617.154,733.441,617.154,733.441Z" transform="translate(-383.497 -364.636)" fill="#fbd56f"/><path d="M617.154,733.441l-1.077-.6a13.043,13.043,0,0,0-.339,3.6.746.746,0,0,0,.561.644c2.477.615,14.282,3.236,22.4-.455a.745.745,0,0,0,.431-.6,11.152,11.152,0,0,0-.394-3.19C638.434,732.046,617.154,733.441,617.154,733.441Z" transform="translate(-383.497 -364.636)" opacity="0.1"/><ellipse cx="11.329" cy="2.554" rx="11.329" ry="2.554" transform="translate(232.58 365.652)" fill="#fbd56f"/><path d="M631.039,715.473l-1.077-.6a13.044,13.044,0,0,0-.339,3.6.746.746,0,0,0,.561.644c2.477.615,14.282,3.236,22.4-.455a.745.745,0,0,0,.431-.6,11.15,11.15,0,0,0-.394-3.19C652.318,714.077,631.039,715.473,631.039,715.473Z" transform="translate(-393.555 -351.619)" fill="#fbd56f"/><path d="M631.039,715.473l-1.077-.6a13.044,13.044,0,0,0-.339,3.6.746.746,0,0,0,.561.644c2.477.615,14.282,3.236,22.4-.455a.745.745,0,0,0,.431-.6,11.15,11.15,0,0,0-.394-3.19C652.318,714.077,631.039,715.473,631.039,715.473Z" transform="translate(-393.555 -351.619)" opacity="0.1"/><ellipse cx="11.329" cy="2.554" rx="11.329" ry="2.554" transform="translate(236.407 360.7)" fill="#fbd56f"/><path d="M615.663,696.767l-1.077-.6a13.042,13.042,0,0,0-.339,3.6.746.746,0,0,0,.561.644c2.477.615,14.282,3.236,22.4-.455a.745.745,0,0,0,.431-.6,11.152,11.152,0,0,0-.394-3.19C636.942,695.371,615.663,696.767,615.663,696.767Z" transform="translate(-382.417 -338.069)" fill="#fbd56f"/><path d="M615.663,696.767l-1.077-.6a13.042,13.042,0,0,0-.339,3.6.746.746,0,0,0,.561.644c2.477.615,14.282,3.236,22.4-.455a.745.745,0,0,0,.431-.6,11.152,11.152,0,0,0-.394-3.19C636.942,695.371,615.663,696.767,615.663,696.767Z" transform="translate(-382.417 -338.069)" opacity="0.1"/><ellipse cx="11.329" cy="2.554" rx="11.329" ry="2.554" transform="translate(232.169 355.545)" fill="#fbd56f"/><path d="M650.254,681.756l-1.077-.6a13.042,13.042,0,0,0-.339,3.6.746.746,0,0,0,.561.644c2.477.615,14.282,3.236,22.4-.455a.745.745,0,0,0,.431-.6,11.152,11.152,0,0,0-.394-3.19C671.533,680.36,650.254,681.756,650.254,681.756Z" transform="translate(-407.475 -327.195)" fill="#fbd56f"/><path d="M650.254,681.756l-1.077-.6a13.042,13.042,0,0,0-.339,3.6.746.746,0,0,0,.561.644c2.477.615,14.282,3.236,22.4-.455a.745.745,0,0,0,.431-.6,11.152,11.152,0,0,0-.394-3.19C671.533,680.36,650.254,681.756,650.254,681.756Z" transform="translate(-407.475 -327.195)" opacity="0.1"/><ellipse cx="11.329" cy="2.554" rx="11.329" ry="2.554" transform="translate(241.702 351.408)" fill="#fbd56f"/><path d="M626.882,671.666l-1.077-.6a13.044,13.044,0,0,0-.339,3.6.746.746,0,0,0,.561.644c2.477.615,14.282,3.236,22.4-.455a.745.745,0,0,0,.431-.6,11.152,11.152,0,0,0-.394-3.19C648.162,670.271,626.882,671.666,626.882,671.666Z" transform="translate(-390.544 -319.886)" fill="#fbd56f"/><path d="M626.882,671.666l-1.077-.6a13.044,13.044,0,0,0-.339,3.6.746.746,0,0,0,.561.644c2.477.615,14.282,3.236,22.4-.455a.745.745,0,0,0,.431-.6,11.152,11.152,0,0,0-.394-3.19C648.162,670.271,626.882,671.666,626.882,671.666Z" transform="translate(-390.544 -319.886)" opacity="0.1"/><ellipse cx="11.329" cy="2.554" rx="11.329" ry="2.554" transform="translate(235.261 348.627)" fill="#fbd56f"/><path d="M642.486,652.188l-1.077-.6a13.042,13.042,0,0,0-.339,3.6.746.746,0,0,0,.561.644c2.477.615,14.282,3.236,22.4-.455a.745.745,0,0,0,.431-.6,11.153,11.153,0,0,0-.394-3.19C663.765,650.793,642.486,652.188,642.486,652.188Z" transform="translate(-401.848 -305.776)" fill="#fbd56f"/><path d="M642.486,652.188l-1.077-.6a13.042,13.042,0,0,0-.339,3.6.746.746,0,0,0,.561.644c2.477.615,14.282,3.236,22.4-.455a.745.745,0,0,0,.431-.6,11.153,11.153,0,0,0-.394-3.19C663.765,650.793,642.486,652.188,642.486,652.188Z" transform="translate(-401.848 -305.776)" opacity="0.1"/><ellipse cx="11.329" cy="2.554" rx="11.329" ry="2.554" transform="translate(239.562 343.259)" fill="#fbd56f"/><path d="M650.183,629.068l-1.077-.6a13.042,13.042,0,0,0-.339,3.6.746.746,0,0,0,.561.644c2.477.615,14.282,3.236,22.4-.455a.745.745,0,0,0,.431-.6,11.153,11.153,0,0,0-.394-3.19C671.462,627.673,650.183,629.068,650.183,629.068Z" transform="translate(-407.423 -289.028)" fill="#fbd56f"/><path d="M650.183,629.068l-1.077-.6a13.042,13.042,0,0,0-.339,3.6.746.746,0,0,0,.561.644c2.477.615,14.282,3.236,22.4-.455a.745.745,0,0,0,.431-.6,11.153,11.153,0,0,0-.394-3.19C671.462,627.673,650.183,629.068,650.183,629.068Z" transform="translate(-407.423 -289.028)" opacity="0.1"/><ellipse cx="11.329" cy="2.554" rx="11.329" ry="2.554" transform="translate(241.683 336.887)" fill="#fbd56f"/><path d="M719.578,752.475l-1.077-.6a13.042,13.042,0,0,0-.339,3.6.746.746,0,0,0,.561.645c2.477.615,14.282,3.236,22.4-.455a.745.745,0,0,0,.431-.6,11.152,11.152,0,0,0-.394-3.19C740.857,751.079,719.578,752.475,719.578,752.475Z" transform="translate(-457.693 -378.424)" fill="#fbd56f"/><path d="M719.578,752.475l-1.077-.6a13.042,13.042,0,0,0-.339,3.6.746.746,0,0,0,.561.645c2.477.615,14.282,3.236,22.4-.455a.745.745,0,0,0,.431-.6,11.152,11.152,0,0,0-.394-3.19C740.857,751.079,719.578,752.475,719.578,752.475Z" transform="translate(-457.693 -378.424)" opacity="0.1"/><ellipse cx="11.329" cy="2.554" rx="11.329" ry="2.554" transform="translate(260.808 370.898)" fill="#fbd56f"/><path d="M733.462,734.506l-1.077-.6a13.042,13.042,0,0,0-.339,3.6.746.746,0,0,0,.561.645c2.477.615,14.282,3.236,22.4-.455a.745.745,0,0,0,.431-.6,11.153,11.153,0,0,0-.394-3.19C754.742,733.111,733.462,734.506,733.462,734.506Z" transform="translate(-467.751 -365.407)" fill="#fbd56f"/><path d="M733.462,734.506l-1.077-.6a13.042,13.042,0,0,0-.339,3.6.746.746,0,0,0,.561.645c2.477.615,14.282,3.236,22.4-.455a.745.745,0,0,0,.431-.6,11.153,11.153,0,0,0-.394-3.19C754.742,733.111,733.462,734.506,733.462,734.506Z" transform="translate(-467.751 -365.407)" opacity="0.1"/><ellipse cx="11.329" cy="2.554" rx="11.329" ry="2.554" transform="translate(264.635 365.946)" fill="#fbd56f"/><path d="M718.086,715.8l-1.077-.6a13.042,13.042,0,0,0-.339,3.6.746.746,0,0,0,.561.644c2.477.615,14.282,3.236,22.4-.455a.745.745,0,0,0,.431-.6,11.152,11.152,0,0,0-.394-3.19C739.365,714.4,718.086,715.8,718.086,715.8Z" transform="translate(-456.613 -351.857)" fill="#fbd56f"/><path d="M718.086,715.8l-1.077-.6a13.042,13.042,0,0,0-.339,3.6.746.746,0,0,0,.561.644c2.477.615,14.282,3.236,22.4-.455a.745.745,0,0,0,.431-.6,11.152,11.152,0,0,0-.394-3.19C739.365,714.4,718.086,715.8,718.086,715.8Z" transform="translate(-456.613 -351.857)" opacity="0.1"/><ellipse cx="11.329" cy="2.554" rx="11.329" ry="2.554" transform="translate(260.397 360.791)" fill="#fbd56f"/><path d="M752.677,700.79l-1.077-.6a13.042,13.042,0,0,0-.339,3.6.746.746,0,0,0,.561.645c2.477.615,14.282,3.236,22.4-.455a.745.745,0,0,0,.431-.6,11.153,11.153,0,0,0-.394-3.19C773.956,699.394,752.677,700.79,752.677,700.79Z" transform="translate(-481.67 -340.983)" fill="#fbd56f"/><path d="M752.677,700.79l-1.077-.6a13.042,13.042,0,0,0-.339,3.6.746.746,0,0,0,.561.645c2.477.615,14.282,3.236,22.4-.455a.745.745,0,0,0,.431-.6,11.153,11.153,0,0,0-.394-3.19C773.956,699.394,752.677,700.79,752.677,700.79Z" transform="translate(-481.67 -340.983)" opacity="0.1"/><ellipse cx="11.329" cy="2.554" rx="11.329" ry="2.554" transform="translate(269.93 356.654)" fill="#fbd56f"/><path d="M729.306,690.7l-1.077-.6a13.042,13.042,0,0,0-.339,3.6.746.746,0,0,0,.561.644c2.477.615,14.282,3.236,22.4-.455a.745.745,0,0,0,.431-.6,11.153,11.153,0,0,0-.394-3.19C750.585,689.3,729.306,690.7,729.306,690.7Z" transform="translate(-464.74 -333.674)" fill="#fbd56f"/><path d="M729.306,690.7l-1.077-.6a13.042,13.042,0,0,0-.339,3.6.746.746,0,0,0,.561.644c2.477.615,14.282,3.236,22.4-.455a.745.745,0,0,0,.431-.6,11.153,11.153,0,0,0-.394-3.19C750.585,689.3,729.306,690.7,729.306,690.7Z" transform="translate(-464.74 -333.674)" opacity="0.1"/><ellipse cx="11.329" cy="2.554" rx="11.329" ry="2.554" transform="translate(263.489 353.873)" fill="#fbd56f"/><path d="M744.909,671.222l-1.077-.6a13.044,13.044,0,0,0-.339,3.6.746.746,0,0,0,.561.644c2.477.615,14.282,3.236,22.4-.455a.745.745,0,0,0,.431-.6,11.155,11.155,0,0,0-.394-3.19C766.189,669.826,744.909,671.222,744.909,671.222Z" transform="translate(-476.043 -319.564)" fill="#fbd56f"/><path d="M744.909,671.222l-1.077-.6a13.044,13.044,0,0,0-.339,3.6.746.746,0,0,0,.561.644c2.477.615,14.282,3.236,22.4-.455a.745.745,0,0,0,.431-.6,11.155,11.155,0,0,0-.394-3.19C766.189,669.826,744.909,671.222,744.909,671.222Z" transform="translate(-476.043 -319.564)" opacity="0.1"/><ellipse cx="11.329" cy="2.554" rx="11.329" ry="2.554" transform="translate(267.789 348.505)" fill="#fbd56f"/><path d="M752.606,648.1l-1.077-.6a13.045,13.045,0,0,0-.339,3.6.746.746,0,0,0,.561.644c2.477.615,14.282,3.236,22.4-.455a.745.745,0,0,0,.431-.6,11.15,11.15,0,0,0-.394-3.19C773.886,646.706,752.606,648.1,752.606,648.1Z" transform="translate(-481.619 -302.816)" fill="#fbd56f"/><path d="M752.606,648.1l-1.077-.6a13.045,13.045,0,0,0-.339,3.6.746.746,0,0,0,.561.644c2.477.615,14.282,3.236,22.4-.455a.745.745,0,0,0,.431-.6,11.15,11.15,0,0,0-.394-3.19C773.886,646.706,752.606,648.1,752.606,648.1Z" transform="translate(-481.619 -302.816)" opacity="0.1"/><ellipse cx="11.329" cy="2.554" rx="11.329" ry="2.554" transform="translate(269.911 342.133)" fill="#fbd56f"/><ellipse cx="10.351" cy="10.987" rx="10.351" ry="10.987" transform="translate(236.512 367.283)" fill="#fbd56f"/><ellipse cx="10.351" cy="10.987" rx="10.351" ry="10.987" transform="translate(236.512 367.283)" opacity="0.1"/><ellipse cx="10.351" cy="10.742" rx="10.351" ry="10.742" transform="translate(238.298 367.772)" fill="#fbd56f"/><path d="M517.4,727.859a11.144,11.144,0,0,1,1.386,2.53c.093.233.183.477.269.734,1.377,4.116-.805,9.052-1.429,8.52s-2.568-1.52-2.944-.132a7.966,7.966,0,0,1-1.765,2.807c-2.53,2.545-4.82-.2-6.323-3.045a27.525,27.525,0,0,1-1.308-2.89c-.334-.872-.525-1.475-.525-1.475l10.538-8.979A6.236,6.236,0,0,1,517.4,727.859Z" transform="translate(-303.127 -359.805)" fill="#6c63ff"/><path d="M457.134,748.691a11.146,11.146,0,0,1,1.386,2.53c.093.233.183.477.269.734,1.377,4.116-.805,9.052-1.429,8.52s-2.568-1.52-2.944-.132a7.966,7.966,0,0,1-1.765,2.807c-2.53,2.545-4.82-.2-6.323-3.046a27.511,27.511,0,0,1-1.308-2.89c-.334-.872-.525-1.475-.525-1.475l10.538-8.979A6.236,6.236,0,0,1,457.134,748.691Z" transform="translate(-259.472 -374.896)" fill="#6c63ff"/><path d="M327.468,775.113a11.143,11.143,0,0,1-.548,2.832c-.077.238-.163.484-.261.736-1.567,4.048-6.4,6.455-6.537,5.647s-1.007-2.809-2.182-1.981a7.965,7.965,0,0,1-3.15,1.035c-3.572.344-3.58-3.234-2.925-6.38a27.513,27.513,0,0,1,.837-3.059c.3-.885.537-1.471.537-1.471l13.843-.187A6.239,6.239,0,0,1,327.468,775.113Z" transform="translate(-163.153 -393.386)" fill="#6c63ff"/><path d="M262.568,758.745a11.146,11.146,0,0,1-.548,2.832c-.077.238-.163.484-.261.736-1.567,4.048-6.4,6.455-6.537,5.647s-1.007-2.809-2.182-1.981a7.965,7.965,0,0,1-3.15,1.035c-3.572.344-3.58-3.234-2.925-6.38a27.519,27.519,0,0,1,.837-3.059c.3-.885.537-1.471.537-1.471l13.843-.187A6.237,6.237,0,0,1,262.568,758.745Z" transform="translate(-116.14 -381.529)" fill="#6c63ff"/><path d="M517.4,727.859a11.144,11.144,0,0,1,1.386,2.53c.093.233.183.477.269.734,1.377,4.116-.805,9.052-1.429,8.52s-2.568-1.52-2.944-.132a7.966,7.966,0,0,1-1.765,2.807c-2.53,2.545-4.82-.2-6.323-3.045a27.525,27.525,0,0,1-1.308-2.89c-.334-.872-.525-1.475-.525-1.475l10.538-8.979A6.236,6.236,0,0,1,517.4,727.859Z" transform="translate(-303.127 -359.805)" opacity="0.2"/><path d="M457.134,748.691a11.146,11.146,0,0,1,1.386,2.53c.093.233.183.477.269.734,1.377,4.116-.805,9.052-1.429,8.52s-2.568-1.52-2.944-.132a7.966,7.966,0,0,1-1.765,2.807c-2.53,2.545-4.82-.2-6.323-3.046a27.511,27.511,0,0,1-1.308-2.89c-.334-.872-.525-1.475-.525-1.475l10.538-8.979A6.236,6.236,0,0,1,457.134,748.691Z" transform="translate(-259.472 -374.896)" opacity="0.2"/><path d="M327.468,775.113a11.143,11.143,0,0,1-.548,2.832c-.077.238-.163.484-.261.736-1.567,4.048-6.4,6.455-6.537,5.647s-1.007-2.809-2.182-1.981a7.965,7.965,0,0,1-3.15,1.035c-3.572.344-3.58-3.234-2.925-6.38a27.513,27.513,0,0,1,.837-3.059c.3-.885.537-1.471.537-1.471l13.843-.187A6.239,6.239,0,0,1,327.468,775.113Z" transform="translate(-163.153 -393.386)" opacity="0.2"/><path d="M262.568,758.745a11.146,11.146,0,0,1-.548,2.832c-.077.238-.163.484-.261.736-1.567,4.048-6.4,6.455-6.537,5.647s-1.007-2.809-2.182-1.981a7.965,7.965,0,0,1-3.15,1.035c-3.572.344-3.58-3.234-2.925-6.38a27.519,27.519,0,0,1,.837-3.059c.3-.885.537-1.471.537-1.471l13.843-.187A6.237,6.237,0,0,1,262.568,758.745Z" transform="translate(-116.14 -381.529)" opacity="0.2"/><path d="M283.381,370.075c0,36.974-12.508,66.947-70.228,66.947-38.786,0-68.793-9.637-70.228-66.947-.926-36.962,31.442-66.947,70.228-66.947S283.381,333.1,283.381,370.075Z" transform="translate(-41 -53.528)" fill="#6c63ff"/><path d="M349.994,307.369H350l-.006,0Z" transform="translate(-191.015 -56.6)" opacity="0.2"/><path d="M350.233,306.98c.178-.029.531-.078,1.044-.117l-1.142.135.061-.012Z" transform="translate(-191.117 -56.233)" opacity="0.2"/><path d="M405.15,331.953l-5.126,1.845a114.494,114.494,0,0,0-8.421-10.039,82.267,82.267,0,0,0-10.664-9.553c-13.125-9.727-23.277-9.975-26.629-9.725l7.706-.906a62.648,62.648,0,0,1,20.687,7.478,68.341,68.341,0,0,1,12.432,9.184A60.789,60.789,0,0,1,405.15,331.953Z" transform="translate(-194.141 -53.851)" opacity="0.2"/><path d="M361.872,343.188s-6.766-22.555-1.025-28.706c0,0,9.022-3.076,15.788,14.353Z" transform="translate(-197.203 -61.601)" opacity="0.2"/><path d="M494.962,309.111s17.944-15.249,25.882-12.458c0,0,6.438,7.03-6.811,20.221Z" transform="translate(-296.03 -48.59)" fill="#6c63ff"/><path d="M494.962,309.111s17.944-15.249,25.882-12.458c0,0,6.438,7.03-6.811,20.221Z" transform="translate(-296.03 -48.59)" opacity="0.2"/><path d="M570.268,513.047c0,19.874-14.262,35.575-27.681,35.575s-20.915-15.7-20.915-35.575,10.9-35.209,24.3-35.985C567.192,475.831,570.268,493.173,570.268,513.047Z" transform="translate(-315.379 -179.481)" fill="#6c63ff"/><path d="M570.268,513.047c0,19.874-14.262,35.575-27.681,35.575s-20.915-15.7-20.915-35.575,10.9-35.209,24.3-35.985C567.192,475.831,570.268,493.173,570.268,513.047Z" transform="translate(-315.379 -179.481)" opacity="0.2"/><ellipse cx="4.511" cy="5.741" rx="4.511" ry="5.741" transform="translate(221.876 330.798)" fill="#6c63ff"/><ellipse cx="4.511" cy="5.741" rx="4.511" ry="5.741" transform="translate(237.87 325.877)" fill="#6c63ff"/><path d="M466,329.587a8.186,8.186,0,0,1-.876,3.7,7.869,7.869,0,0,1-3.531,3.523,82.263,82.263,0,0,0-10.664-9.553,8.037,8.037,0,0,1,1.763-3.154,7.559,7.559,0,0,1,5.606-2.512A7.851,7.851,0,0,1,466,329.587Z" transform="translate(-264.135 -66.905)" fill="#fad46f"/></g></svg>