<svg xmlns="http://www.w3.org/2000/svg" width="195.465" height="217.189" viewBox="0 0 195.465 217.189">
  <g id="Group_35" data-name="Group 35" transform="translate(-1240.23 -250.61)">
    <ellipse id="Ellipse_65" data-name="Ellipse 65" cx="96.124" cy="42.899" rx="96.124" ry="42.899" transform="translate(1241.778 250.61)" fill="#0a3ea6"/>
    <path id="Path_246" data-name="Path 246" d="M621.935,322.521c-4.253,22.369-46.274,39.93-97.5,39.93-51.67,0-93.982-17.87-97.609-40.511h-.36v36.454c16.9,17.655,54.305,29.933,97.729,29.933s80.832-12.278,97.735-29.933Z" transform="translate(813.76 -13.676)" fill="#0a3ea6"/>
    <path id="Path_247" data-name="Path 247" d="M621.935,392.718c-4.253,22.363-46.274,39.93-97.5,39.93-51.67,0-93.982-17.87-97.609-40.517h-.36v36.46c16.9,17.655,54.305,29.927,97.729,29.927s80.832-12.271,97.735-29.927Z" transform="translate(813.76 -39.513)" fill="#0a3ea6"/>
    <path id="Path_248" data-name="Path 248" d="M621.935,469.931c-4.253,22.369-46.274,39.93-97.5,39.93-51.67,0-93.982-17.864-97.609-40.511h-.36v39.317a6.06,6.06,0,0,0,1.946,4.461c17.693,16.246,53.958,22.609,95.783,22.609s78.071-6.363,95.789-22.609a6.06,6.06,0,0,0,1.946-4.461Z" transform="translate(813.76 -67.938)" fill="#0a3ea6"/>
  </g>
</svg>
