<svg xmlns="http://www.w3.org/2000/svg" xmlns:xlink="http://www.w3.org/1999/xlink" width="159.701" height="175.926" viewBox="0 0 159.701 175.926"><defs><linearGradient id="a" x1="0.5" y1="1" x2="0.5" gradientUnits="objectBoundingBox"><stop offset="0" stop-color="gray" stop-opacity="0.251"/><stop offset="0.54" stop-color="gray" stop-opacity="0.122"/><stop offset="1" stop-color="gray" stop-opacity="0.102"/></linearGradient></defs><g transform="translate(-1332.262 -182.074)"><path d="M1005.1,780.821l-18.114-26.245s-.34-6.5-1.527-8.016-.249-4.9-.249-4.9,1.27-1.859.166-2.025-.166-4.307-.166-4.307l-.091-6.588s1.021-6.331.174-7.85a2.489,2.489,0,0,1,.083-2.7s1.012-3.634,0-4.564-.763-6.588-.506-11.061-1.776-7-1.776-7.684-6.688-7.26-6.688-7.85-4.232-3.045-6.771-3.717-3.809-1.178-3.726-1.518-3.975-1.66-3.975-1.66-3.56-.249-4.912-2.025-5.493-2.282-5.609-2.3-.058-.241-.083-.357l-.075-.382a18.546,18.546,0,0,0,.88-1.66l.241-.514a7.22,7.22,0,0,0,4.149-1.294,5.7,5.7,0,0,0,2.025-4.049,8.854,8.854,0,0,0-.987-4.5c-.747-1.527-1.834-3.1-1.46-4.746a21.354,21.354,0,0,1,.83-2.033,5.393,5.393,0,0,0-.606-4c-.647-1.228-1.535-2.307-2.249-3.493a13.709,13.709,0,0,1-1.792-4.979,7.708,7.708,0,0,0-.656-2.688,5.119,5.119,0,0,0-1.485-1.5,14.812,14.812,0,0,0-9.127-2.755c-2.307.075-4.605.7-6.9.415a24.25,24.25,0,0,1-4.016-1.054c-2.838-.83-6.115-1.187-8.588.44s-3.452,4.821-5.128,7.319c-1.485,2.215-3.651,4.066-4.779,6.406v-.133a7.943,7.943,0,0,0-.631,1.709,12.206,12.206,0,0,0,.373,5.593,3.933,3.933,0,0,0,1.369,2.489c.83.531,1.983.406,2.962.581a2.7,2.7,0,0,1-.116.481,19.317,19.317,0,0,0,13.417,22.545v.514a11.613,11.613,0,0,1-.091,1.451h0s-8.505-1.751-10.787-.564-6.771,2.108-7.468,2.788-2.373.166-3.9,4.149-1.66,8.024-3.634,9.883-2.962,3.12-3.045,4.472.249,1.66-.514,2.108-1.859,2.2-1.518,2.871a2.415,2.415,0,0,1-.929,2.539,2.8,2.8,0,0,0-1.187,2.489s-.506,1.859-1.659,2.282-1.95,3.2-1.95,3.2l-3.833,4.414-7.609-8.414a3.219,3.219,0,0,0-4.531-.232l-3.734,3.319a7.4,7.4,0,0,0-3.734,2.224,9.791,9.791,0,0,0-1.942,2.879l-2.041,1.842a5.194,5.194,0,0,0-.523,5.742L869.223,739v.05a8.6,8.6,0,0,0-4.614,2c-7.277,6.414-7.368,12.33-6.265,15.027s10.322,13.094,10.322,13.094a41.319,41.319,0,0,0,13.094,10.671h0l-.058.058c-.149.166-.307.34-.456.531l-.125.158a2.01,2.01,0,0,1-.116.166l-.133.2-.108.166-.149.249-.091.158-.174.332a.918.918,0,0,0-.058.108c-.017.041-.141.3-.208.456a1.5,1.5,0,0,0-.066.174c-.05.108-.091.224-.133.332l-.075.224a1.236,1.236,0,0,1-.108.324l-.075.241-.1.373a.767.767,0,0,1-.066.224c-.025.075-.091.4-.133.606a2.083,2.083,0,0,1-.042.241l-.075.44a.806.806,0,0,1-.042.307l-.05.415v1.933c-.174,9.883.407,11.318.407,11.318a5.477,5.477,0,0,0,4.489,3.369,5.868,5.868,0,0,0,1.452-.075c4.4-.763,14.72-2.539,18.363-1.859,2.191.407,6.24-.2,9.127-.738l.763-.149.531,1.659,1.66-.456,1.427.83c.373.224.68.4.9.514,1.66,5.667,8.447,3.734,8.447,3.734l1.61.929,16.33.423a33.134,33.134,0,0,0,5.808,2.771,5.337,5.337,0,0,0,.83.182,38.248,38.248,0,0,0,4.555.083c1.253,0,2.215-.083,2.215-.083s-.166-4.439-.4-9.4a133.055,133.055,0,0,0,15.127-1.236c8.721-1.535,12.364-9.468,13.7-13.708a39.463,39.463,0,0,1,.83,5.261,39.191,39.191,0,0,0,1.353,4.564,15.414,15.414,0,0,0,1.867,3.377c6.431-2.2,2.539-5.493,1.187-6.929s.929-2.614.929-2.614,1.776-1.187,1.61-2.282-.257-2.282,5.5-2.191S1005.1,780.821,1005.1,780.821Zm-89.374-53.935c.075.49.88,5.684,1.6,7.053a9.012,9.012,0,0,1,.191,2.788c-3.41-.274-6.962-.423-6.962-.423a.83.83,0,0,1,.183.44l-.531-.125-.78-.191,6.281-9.551Zm-12.447,19.806,5.908.929.49.083a20.9,20.9,0,0,0-.307,2.788c0,.083.141.191.324.315a7.471,7.471,0,0,0-.108,1.394c.091.465,2.854,1.477,6.016,2.315-.042.174-.083.332-.133.481h0c-2.8-1.469-7.194-2.157-7.7-3.244s-15.492-6.306-15.492-6.306-.548-.29-1.494-.747l3.95.747,1.079-.108a58.607,58.607,0,0,0,7.468,1.369Z" transform="translate(486.86 -453.45)" fill="url(#a)"/><path d="M990.215,808.539s-2.348,14.181-14.264,16.272-51.669,1.659-51.669,1.659-22.727-3.319-30.95-22.487-13.5-26.835-6.456-27.175,45.04,12.836,47.222,13S992.314,760.645,990.215,808.539Z" transform="translate(482.475 -477.501)" fill="#65617d"/><path d="M990.215,808.539s-2.348,14.181-14.264,16.272-51.669,1.659-51.669,1.659-22.727-3.319-30.95-22.487-13.5-26.835-6.456-27.175,45.04,12.836,47.222,13S992.314,760.645,990.215,808.539Z" transform="translate(482.475 -477.501)" opacity="0.05"/><path d="M883.509,829.654a5.435,5.435,0,0,0,4.448,3.319,5.734,5.734,0,0,0,1.435-.075c4.365-.755,14.6-2.489,18.205-1.842,2.166.4,6.182-.2,9.036-.738,1.9-.357,3.319-.689,3.319-.689s-3.36-11.16-3.775-11.492-15.1-9.127-15.1-9.127l-11.617-.83h0a6.157,6.157,0,0,0-3.941,2.315c-1.228,1.485-2.282,3.925-2.348,7.916C882.936,828.227,883.509,829.654,883.509,829.654Z" transform="translate(482.556 -482.842)" fill="#3f3d56"/><path d="M883.507,829.649a5.435,5.435,0,0,0,4.448,3.319,46.77,46.77,0,0,1-3.153-4.605l.058-8.132a14.339,14.339,0,0,1,4.564-12.081h0s-6.124.415-6.29,10.231S883.507,829.649,883.507,829.649Z" transform="translate(482.558 -482.837)" opacity="0.05"/><path d="M942.964,807.407l10.787-8.472,17.027-16.778s-1.834-.091-4.613-.207c-.689.44-2.622,1.825-2.7,3.5-.083,2.049-4.6.141-6.945,1.319s-13.84,15.882-15.857,15.766-3.609-1.021-4.448.407l-.058.091Z" transform="translate(473.525 -478.377)" opacity="0.1"/><path d="M885.93,810.53l1.178.539c8.215,3.518,18.363,10.9,19.085,12.247.465.83,6.348,4.381,10.887,7.061,1.9-.357,3.319-.689,3.319-.689s-3.361-11.16-3.775-11.492-15.1-9.127-15.1-9.127l-11.617-.83h0A6.157,6.157,0,0,0,885.93,810.53Z" transform="translate(482.076 -482.852)" opacity="0.1"/><path d="M858.323,778.516c1.1,2.68,10.239,13,10.239,13s5.808,7.543,14.006,11.069,18.371,10.9,19.126,12.247c.481.83,7.036,4.8,11.617,7.518l1.037.606,2.29,1.328,1.211.7,5.6-4.522c2.763-2.24,5.51-4.5,5.551-4.622.083-.249,1.178-3.1.921-3.269-.124-.091-.705-1.245-1.767-2.6a11.774,11.774,0,0,0-4.273-3.526,12.173,12.173,0,0,1-5.535-5.808s-.365-.266-.921-.614a11.111,11.111,0,0,0-3.775-1.659c-1.842-.232-5.277-4.008-5.277-4.008a10.33,10.33,0,0,1-3.278-3.435c-.88-1.842-13.89-10.787-15.093-11.617l31.531,20.255,7.543,4.846,10.787-8.472,17.035-16.77s-2.29-.116-5.626-.257c-8.3-.357-22.968-.921-24.827-.5a14.263,14.263,0,0,1-4.613.3s-4.149.191-6.962-1.278-7.128-2.141-7.634-3.228-15.351-6.281-15.351-6.281-20.213-10.737-27.432-4.365S857.236,775.828,858.323,778.516Z" transform="translate(486.865 -474.901)" fill="#65617d"/><path d="M937,702.692l2.6,8.638,3.319,19.458,12.33.83,3.568-5.916,3.56-5.908s2.224-7.866,3.817-15.467c1.411-6.738,2.332-13.276.83-13.973-1.361-.631-2.257-2.9-2.838-5.335-.075-.3-.141-.606-.2-.913a47.082,47.082,0,0,1-.83-6.256s-25.839-1.336-22.229,9.318a16.854,16.854,0,0,1,.971,5.659,13.4,13.4,0,0,1-.083,1.444A12.082,12.082,0,0,1,937,702.692Z" transform="translate(473.382 -460.646)" fill="#ee8e9e"/><path d="M930.51,704.653l.921,14.679,2.1,12.5,2.348,5.808,2.1,31.672s20.221,2.34,25.142-.041a2.191,2.191,0,0,0,.888-.7c5.908-8.995,4-34.941,4-34.941l2.265-16.77-1.51-8.713-3.651-.382-2.813-.307s-.631.78-1.543,1.991c-2.489,3.319-7.061,9.741-6.754,12.446.415,3.693-.506,7.468-1.933,8.057s-2.6,1.593-2.854.581a4.572,4.572,0,0,1-.249-2.68c.249-1.427-1.087-5.808-1.087-5.808s-2.265-5.111-2.1-7.294-.249-4.7-.921-5.286-1.593-1.178-.83-3.858-3.319-7.908-3.319-7.908Z" transform="translate(474.487 -464.035)" fill="#e3e8f4"/><path d="M962.7,739.375l.83,25.084,4.846,2.68a2.109,2.109,0,0,0,.888-.689c5.941-8.978,3.991-34.958,3.991-34.958l2.265-16.778-1.51-8.7-3.643-.39c1.411-6.729,2.332-13.276.83-13.973-1.361-.631-2.257-2.9-2.838-5.327h0l-2.614,17.74s.216,1.6.29,3.253a9.125,9.125,0,0,1-.207,3.12,10.406,10.406,0,0,0-.166,4.2c-1.518,2.664-2.274,7.6-2.639,12.364C962.512,733.351,962.7,739.375,962.7,739.375Z" transform="translate(469.013 -462.097)" opacity="0.1"/><path d="M968.514,685.83s4.232.531,5.568,2.29,4.871,2.016,4.871,2.016,4.024,1.336,3.941,1.66,1.17.83,3.693,1.51,6.7,3.1,6.7,3.692,6.638,7.128,6.638,7.8,2.016,3.186,1.759,7.634-.5,10.065.506,10.986,0,4.531,0,4.531a2.489,2.489,0,0,0-.083,2.68c.83,1.51-.166,7.8-.166,7.8l.083,6.547s-.921,4.149.166,4.273-.166,2.016-.166,2.016-.921,3.319.249,4.862,1.51,7.974,1.51,7.974l17.948,26.088s.257,4.779-5.452,4.7-5.617,1.087-5.452,2.182-1.593,2.257-1.593,2.257-2.265,1.178-.921,2.605,5.2,4.7-1.178,6.879a15.423,15.423,0,0,1-1.842-3.319,37.847,37.847,0,0,1-1.344-4.522s-.589-6.381-1.759-7.219-.979-4.887-.979-4.887,1.66-3.269-.672-4.613-36.41-20.213-36.41-20.213l-.83-25.084s-.581-18.537,2.937-24.744a10.571,10.571,0,0,1,.166-4.2c.581-1.51-.083-6.373-.083-6.373Z" transform="translate(468.911 -462.014)" fill="#3f3d56"/><path d="M936.814,697.8s-8.43-1.734-10.7-.564-6.713,2.1-7.385,2.771-2.348.166-3.858,4.149-1.66,7.974-3.609,9.816-2.929,3.1-3.012,4.448.249,1.659-.506,2.1-1.85,2.174-1.51,2.846S923.662,738.8,923.662,738.8s.83,5.626,1.593,7.045-.83,21.059-2.489,22.4,11.326,1.211,11.326,1.211.589-12.878,1.1-13.542-.34-14.43-.34-14.43-.083-11.741,1-14.853.971-13.417.971-13.417.962-6.19,2.133-7.634S936.814,697.8,936.814,697.8Z" transform="translate(478.63 -463.887)" opacity="0.1"/><path d="M936.514,697.46s-8.439-1.742-10.7-.564-6.7,2.1-7.377,2.771-2.348.166-3.858,4.107-1.66,7.966-3.609,9.816-2.937,3.1-3.02,4.439.257,1.66-.5,2.1-1.85,2.182-1.51,2.854S923.4,738.4,923.4,738.4s.83,5.618,1.593,7.045-.83,21.051-2.489,22.4,11.276,1.253,11.276,1.253.589-12.878,1.087-13.55-.332-14.43-.332-14.43-.083-11.741,1-14.844.971-13.417.971-13.417.963-6.19,2.132-7.634S936.514,697.46,936.514,697.46Z" transform="translate(478.681 -463.828)" fill="#3f3d56"/><path d="M941.659,687.177a16.854,16.854,0,0,1,.971,5.659,19.234,19.234,0,0,0,22.08-8.721,47.073,47.073,0,0,1-.83-6.256S938.05,676.523,941.659,687.177Z" transform="translate(472.648 -460.648)" opacity="0.1"/><path d="M926.37,669.179a19.184,19.184,0,1,0,.415-3.991A19.184,19.184,0,0,0,926.37,669.179Z" transform="translate(475.192 -455.909)" fill="#ee8e9e"/><path d="M908.063,726.7l-4.572,1.427a2.39,2.39,0,0,1-.929,2.489,2.813,2.813,0,0,0-1.17,2.489s-.506,1.85-1.659,2.265-1.933,3.195-1.933,3.195L893.94,743s-1.427,1.178-1.17,1.767-1.51.755-1.51.755l.921,14.936,7.966,1.51,4.979-.506,4.024-1.51,3.518-2.091,1.6-4.149,7.045-10.737Z" transform="translate(481.169 -468.971)" fill="#3f3d56"/><path d="M888.381,748.982s-10.231-14.762-17.865-6.8,3.1,20.885,5.618,20.47,14.513-1.112,14.513-1.112Z" transform="translate(485.159 -471.206)" fill="#ee8e9e"/><rect width="53.561" height="41.588" rx="1.54" transform="translate(1351.168 247.698) rotate(27.04)" fill="#3f3d56"/><rect width="45.023" height="33.929" transform="translate(1353.3 253.001) rotate(27.04)" fill="#13b3f2"/><circle cx="1.22" cy="1.22" r="1.22" transform="translate(1386.269 288.306)" fill="#e6e8ec"/><path d="M884.62,753.534c-.083,11.077,22.81,13.417,22.81,13.417l5.808.929,2.622.415,1.1-10.787s-1.2-.174-2.705-.523c-2.215-.523-5.086-1.411-5.684-2.664C907.6,752.207,884.7,742.465,884.62,753.534Z" transform="translate(482.299 -472.655)" fill="#ee8e9e"/><path d="M926.87,665.2a2.241,2.241,0,0,1,1.4.631c.656.689.689,1.9,1.527,2.323a1.66,1.66,0,0,0,1,.116c2.232-.315,3.518-2.829,5.659-3.526a5.809,5.809,0,0,1,3.759.324,2.78,2.78,0,0,1,1.236.83c.722.929.216,2.3.548,3.419.465,1.56,2.323,2.174,3.933,2.381s3.427.315,4.5,1.527a4.1,4.1,0,0,1,.83,3.253,2.532,2.532,0,0,0,0,1.195c.448,1.261,2.622,1.07,3.195.083.415-.722.282-1.328,1.261-1.527a4.2,4.2,0,0,1,2.058.357,15,15,0,0,0,5.311.83,19.209,19.209,0,1,0-36.178-12.164Z" transform="translate(475.107 -455.923)" opacity="0.1"/><path d="M950.254,675.024a2.564,2.564,0,0,1,0-1.2,4.091,4.091,0,0,0-.83-3.244c-1.07-1.22-2.888-1.336-4.5-1.535s-3.468-.83-3.933-2.381c-.332-1.12.174-2.489-.548-3.41a2.647,2.647,0,0,0-1.236-.83,5.667,5.667,0,0,0-3.759-.324c-2.141.689-3.427,3.211-5.659,3.527a1.8,1.8,0,0,1-1-.116c-.83-.423-.88-1.66-1.527-2.332-1.012-1.079-2.946-.382-4.2-1.178a3.883,3.883,0,0,1-1.353-2.489,12.173,12.173,0,0,1-.373-5.559c.73-3.12,3.518-5.261,5.3-7.924,1.66-2.489,2.589-5.626,5.086-7.269s5.692-1.27,8.505-.44a24.89,24.89,0,0,0,3.983,1.046c2.273.282,4.547-.34,6.829-.415a14.687,14.687,0,0,1,9.02,2.738,5.037,5.037,0,0,1,1.469,1.494,7.617,7.617,0,0,1,.655,2.664,13.642,13.642,0,0,0,1.767,4.912c.705,1.178,1.593,2.249,2.232,3.468a5.368,5.368,0,0,1,.6,3.975c-.216.689-.639,1.311-.83,2.016-.373,1.659.705,3.2,1.444,4.713a8.97,8.97,0,0,1,.979,4.472,5.634,5.634,0,0,1-2.016,4.024,7.194,7.194,0,0,1-4.248,1.286,15.035,15.035,0,0,1-5.418-.83,4.282,4.282,0,0,0-2.049-.357c-.979.208-.83.83-1.27,1.527C952.876,676.1,950.7,676.277,950.254,675.024Z" transform="translate(476.077 -453.805)" fill="#3f3d56"/><path d="M942.2,808l10.787-8.472,17.035-16.77s-2.29-.116-5.626-.257a3.717,3.717,0,0,0-1.187,2.29c-.083,2.05-4.6.141-6.945,1.319s-13.84,15.882-15.857,15.766-3.609-1.021-4.448.407l-.058.091a2.407,2.407,0,0,1-1.278.763Z" transform="translate(473.788 -478.47)" opacity="0.1"/><path d="M917.47,806.221l5.418,17.35.83,2.73,2.589-.714,5.709-1.568,25.424-6.978a22.1,22.1,0,0,0,9.127-2.489,27.73,27.73,0,0,1,15.766-3.444c3.319.315,7.094-1.137,10.2-6.862,0,0,7.045-20.8-10.737-26.76s-18.637,3.17-18.637,3.17l-.241.149c-.689.44-2.622,1.825-2.7,3.5-.083,2.049-4.6.141-6.945,1.319s-13.84,15.882-15.857,15.766-3.609-1.021-4.448.407l-.058.091c-.622.83-2.489,1.054-3.726,1.1h-1.162l-.158.05-1.294.382Z" transform="translate(476.707 -477.273)" fill="#65617d"/><path d="M919.16,769.655l2.622.415,1.1-10.787s-1.2-.174-2.705-.523C920.571,760.237,919.674,766.07,919.16,769.655Z" transform="translate(476.419 -474.429)" opacity="0.1"/><path d="M987.839,710.946s7.8-2.265,5.866,19.914a61.793,61.793,0,0,1-16.355,36.153s-16.6,7.294-24.063,6.124-12.919-1.427-12.919-1.427a18.933,18.933,0,0,0-7.551-2.016c-4.149-.166-13-2.763-13.168-3.609s2.182-13.168,1.17-14.106c0,0,11.749.481,12.919,1.336s2.854.241,4.149,0,5.111-3.6,12.745-.664c0,0,2.605.249,3.609-.415a3.609,3.609,0,0,1,2.622-.174,7.309,7.309,0,0,0,1.826-.921c.249-.332,2.265,0,2.265,0a.888.888,0,0,0,1.253-.589,5.542,5.542,0,0,1,1.178-1.842s2.265-12.753,6.539-17.533a2.713,2.713,0,0,0,.921-2.431C970.471,727.35,977.765,708.224,987.839,710.946Z" transform="translate(476.338 -466.244)" opacity="0.1"/><path d="M987.588,708.857s7.8-2.265,5.866,19.914A61.793,61.793,0,0,1,977.1,764.924s-16.6,7.294-24.063,6.124-12.919-1.427-12.919-1.427a18.886,18.886,0,0,0-7.551-2.016c-4.149-.166-13-2.763-13.168-3.609s2.182-13.168,1.178-14.106c0,0,11.741.481,12.911,1.336s2.854.241,4.149,0,5.111-3.6,12.745-.664c0,0,2.605.249,3.609-.423a3.635,3.635,0,0,1,2.622-.166,7.309,7.309,0,0,0,1.826-.921c.249-.332,2.265,0,2.265,0a.888.888,0,0,0,1.253-.589,5.542,5.542,0,0,1,1.178-1.842s2.265-12.753,6.539-17.533a2.73,2.73,0,0,0,.929-2.431C970.221,725.295,977.523,706.169,987.588,708.857Z" transform="translate(476.38 -465.89)" fill="#3f3d56"/><path d="M928.56,809.122l11.086,13.409.066-.075c.083-.257,1.17-3.112.921-3.278s-2.182-4.365-6.041-6.124a11.384,11.384,0,0,1-4.738-4.315Z" transform="translate(474.819 -482.937)" opacity="0.1"/><path d="M928.7,834.121l1.211.7,5.6-4.522c2.763-2.24,5.51-4.5,5.551-4.622.083-.249,1.178-3.1.921-3.269-.125-.091-.705-1.245-1.767-2.6-7.468-2.1-2.722,3.112-2.091,3.319,0,0-9.127-2.1-9.642,7.858a11.816,11.816,0,0,0,.216,3.136Z" transform="translate(474.836 -484.737)" opacity="0.1"/><path d="M938.12,838.345l1.593.921,16.189.415a32.8,32.8,0,0,0,5.734,2.763,4.976,4.976,0,0,0,.83.174,35.881,35.881,0,0,0,4.514.083c1.236,0,2.2-.083,2.2-.083s-.772-20.412-1.344-22.561c-.282-1.029-1.66-.83-2.971-.29a19.81,19.81,0,0,0-2.9,1.469s-6.879.664-7.966,1.261-4.2-.34-6.124,0-5.369-2.274-5.369-2.274c-9.393-3.1-4.149,2.688-3.444,2.937,0,0-9.127-2.1-9.642,7.858S938.12,838.345,938.12,838.345Z" transform="translate(474.677 -484.737)" fill="#3f3d56"/><path d="M968.109,830.456c.182,4.232,3.477,9.476,5.443,12.247,1.236,0,2.2-.083,2.2-.083s-.772-20.412-1.344-22.561c-.282-1.029-1.659-.83-2.971-.29C969.81,822.814,968.018,827.054,968.109,830.456Z" transform="translate(468.087 -484.739)" fill="#565387"/><path d="M968.109,830.456c.182,4.232,3.477,9.476,5.443,12.247,1.236,0,2.2-.083,2.2-.083s-.772-20.412-1.344-22.561c-.282-1.029-1.659-.83-2.971-.29C969.81,822.814,968.018,827.054,968.109,830.456Z" transform="translate(468.087 -484.739)" opacity="0.1"/><path d="M964.724,831.021c1.112,4.082,1.1,8.654,2.879,11.426a4.974,4.974,0,0,0,.83.174,35.869,35.869,0,0,0,4.514.083c1.236,0,2.2-.083,2.2-.083s-.772-20.412-1.344-22.561c-.282-1.029-1.659-.83-2.971-.29a19.81,19.81,0,0,0-2.9,1.469S963.3,825.793,964.724,831.021Z" transform="translate(468.709 -484.739)" opacity="0.05"/><path d="M897.47,783.54s8.04,2.614,14.853,11.891Z" transform="translate(480.112 -478.647)" opacity="0.1"/><g transform="translate(1397.26 198.517)" opacity="0.1"><path d="M976.152,662.24l-.05.183a5.542,5.542,0,0,1-.282.7,5.634,5.634,0,0,1,.332-.88Z" transform="translate(-930.485 -656.515)"/><path d="M921.355,657a7.787,7.787,0,0,1,.622-1.659,2.23,2.23,0,0,1-.116.431,11.989,11.989,0,0,0,.373,5.568,3.85,3.85,0,0,0,1.353,2.489c1.245.83,3.178.108,4.2,1.187.647.68.68,1.9,1.527,2.323a1.726,1.726,0,0,0,1,.116c2.224-.315,3.518-2.838,5.659-3.527a5.643,5.643,0,0,1,3.75.324,2.855,2.855,0,0,1,1.245.83c.714.929.216,2.29.548,3.419.456,1.552,2.315,2.174,3.925,2.373s3.427.324,4.506,1.535a4.149,4.149,0,0,1,.83,3.244,2.49,2.49,0,0,0,0,1.2c.44,1.261,2.614,1.07,3.186.075.415-.722.29-1.319,1.27-1.518a4.074,4.074,0,0,1,2.05.357,15.244,15.244,0,0,0,5.418.83,7.285,7.285,0,0,0,4.257-1.294,4.82,4.82,0,0,0,1.3-1.585,5.335,5.335,0,0,1-1.809,2.846,7.21,7.21,0,0,1-4.248,1.286,15.035,15.035,0,0,1-5.418-.83,4.3,4.3,0,0,0-2.058-.357c-.979.207-.83.83-1.27,1.527-.564,1-2.738,1.178-3.186-.075a2.683,2.683,0,0,1,0-1.2,4.058,4.058,0,0,0-.83-3.244c-1.07-1.22-2.888-1.336-4.5-1.535s-3.468-.83-3.933-2.381c-.332-1.12.174-2.489-.548-3.41a2.689,2.689,0,0,0-1.236-.83,5.668,5.668,0,0,0-3.759-.324c-2.141.689-3.435,3.211-5.659,3.527a1.8,1.8,0,0,1-1-.116c-.83-.423-.88-1.66-1.527-2.332-1.021-1.079-2.946-.382-4.2-1.178a3.85,3.85,0,0,1-1.352-2.489,12.057,12.057,0,0,1-.373-5.6Z" transform="translate(-921.185 -655.34)"/></g><path d="M976.412,737.425c-1.543,2.074-3.319,3.991-4.655,6.19a11.75,11.75,0,0,0-2.041,7.318c1.411-1.444,2.058-3.435,2.946-5.244,1.5-3.07,3.742-5.667,5.642-8.489.357-.539,2.672-3.651,1.5-3.792C978.835,733.285,976.935,736.72,976.412,737.425Z" transform="translate(467.816 -470.113)" opacity="0.1"/></g></svg>