<svg xmlns="http://www.w3.org/2000/svg" width="247" height="144.5" viewBox="0 0 247 144.5"><g transform="translate(0 -70.5)"><path d="M321.941,563.871s95.247-79.492,150.1,0" transform="translate(-273.673 -349.786)" fill="#f2f2f2"/><rect width="17.187" height="45.26" rx="8.594" transform="translate(45.547 168.968)" fill="#00b0ff"/><rect width="17.187" height="72.474" rx="8.594" transform="translate(78.203 141.755)" fill="#00b0ff"/><rect width="17.187" height="91.38" rx="8.594" transform="translate(110.859 122.849)" fill="#00b0ff"/><rect width="17.187" height="109.427" rx="8.594" transform="translate(143.515 104.802)" fill="#00b0ff"/><rect width="17.187" height="140.937" rx="8.594" transform="translate(176.171 73.292)" fill="#83b33b"/><rect width="17.187" height="45.26" rx="8.594" transform="translate(47.838 166.677)" fill="none" stroke="#3f3d56" stroke-miterlimit="10" stroke-width="1"/><rect width="17.187" height="72.474" rx="8.594" transform="translate(80.494 139.463)" fill="none" stroke="#3f3d56" stroke-miterlimit="10" stroke-width="1"/><rect width="17.187" height="91.38" rx="8.594" transform="translate(113.151 120.557)" fill="none" stroke="#3f3d56" stroke-miterlimit="10" stroke-width="1"/><rect width="17.187" height="109.427" rx="8.594" transform="translate(145.807 102.51)" fill="none" stroke="#3f3d56" stroke-miterlimit="10" stroke-width="1"/><rect width="17.187" height="140.937" rx="8.594" transform="translate(178.463 71)" fill="none" stroke="#3f3d56" stroke-miterlimit="10" stroke-width="1"/><line x1="247" transform="translate(0 214.5)" fill="none" stroke="#3f3d56" stroke-miterlimit="10" stroke-width="1"/></g></svg>