<svg xmlns="http://www.w3.org/2000/svg" width="164.343" height="230.076" viewBox="0 0 164.343 230.076">
  <path id="Path_440" data-name="Path 440" d="M562.876,231.724V200.351L521.79,242.183l41.085,41.833V252.64c33.893,0,61.628,28.237,61.628,62.749a63.192,63.192,0,0,1-7.194,29.285l14.9,15.162a83.059,83.059,0,0,0,12.839-44.447C645.047,269.375,608.069,231.724,562.876,231.724Zm0,146.415c-33.9,0-61.628-28.24-61.628-62.75a63.238,63.238,0,0,1,7.189-29.282l-14.892-15.165A81.708,81.708,0,0,0,480.7,315.389c0,46.015,36.978,83.665,82.171,83.665v31.374L603.961,388.6l-41.085-41.834Z" transform="translate(-480.704 -200.351)" fill="#83b33b"/>
</svg>
