<svg xmlns="http://www.w3.org/2000/svg" width="157.356" height="127.168" viewBox="0 0 157.356 127.168"><g transform="translate(-68)"><path d="M502.3,532.746a8.627,8.627,0,0,0,3.753-.127c.189-.059.4-.189.378-.378a.458.458,0,0,0-.085-.189,11.672,11.672,0,0,1-1.134-2.16.189.189,0,0,0-.07-.1.177.177,0,0,0-.121,0c-.554.145-1.032.5-1.582.656a2.248,2.248,0,0,1-.862.064c-.249-.028-.59-.234-.816-.208C501.888,531.132,502.2,531.9,502.3,532.746Z" transform="translate(-367.756 -452.017)" fill="#6c63ff"/><path d="M624.1,516a6.557,6.557,0,0,0,2.169-2.037.354.354,0,0,0,.059-.176.364.364,0,0,0-.07-.17,7.023,7.023,0,0,0-1.763-1.9,5.141,5.141,0,0,0-.983.907c-.208.219-.782.567-.788.9,0,.189.219.408.321.567.138.2.268.412.393.624A7.4,7.4,0,0,1,624.1,516Z" transform="translate(-465.86 -437.358)" fill="#6c63ff"/><path d="M475.647,541.065a.841.841,0,0,1-.151.548.742.742,0,0,1-.317.189c-1.752.627-3.779-.155-5.527.463-.359.127-.7.31-1.06.431a5.765,5.765,0,0,1-1.323.234c-.618.059-1.24.1-1.859.113a4.474,4.474,0,0,1-1.4-.123,1.684,1.684,0,0,1-1.075-.852.818.818,0,0,1-.053-.607.654.654,0,0,1,.115-.189,1.657,1.657,0,0,1,.412-.334l.644-.416a4.323,4.323,0,0,1,.977-.518c.255-.083.525-.119.784-.189a5.323,5.323,0,0,0,2.239-1.672l.877-.935a.883.883,0,0,1,.3-.244.842.842,0,0,1,.378-.036,5.052,5.052,0,0,1,2.39.8,3.1,3.1,0,0,0,.59.348,2.1,2.1,0,0,0,1.648-.2c.225-.121.176-.189.27-.4s.325-.353.525-.157a.556.556,0,0,1,.125.238,6.7,6.7,0,0,1,.117,1.948.857.857,0,0,0,.038.3,1.716,1.716,0,0,0,.172.28.636.636,0,0,1,.036.072,1.922,1.922,0,0,1,.127.913Z" transform="translate(-336.194 -457.805)" fill="#514e7f"/><path d="M475.647,554.908a.841.841,0,0,1-.151.548.743.743,0,0,1-.317.189c-1.752.627-3.779-.155-5.527.463-.359.127-.7.31-1.06.431a5.771,5.771,0,0,1-1.323.234c-.618.059-1.24.1-1.859.113a4.474,4.474,0,0,1-1.4-.123,1.684,1.684,0,0,1-1.075-.852.818.818,0,0,1-.053-.607.652.652,0,0,1,.115-.189c.1.214.176.5.24.6a1.226,1.226,0,0,0,.82.591,2.038,2.038,0,0,0,.756-.1,38.064,38.064,0,0,0,4.8-.994,11.094,11.094,0,0,1,1.572-.6,12.355,12.355,0,0,1,1.7-.138c.9-.072,1.763-.342,2.645-.484a1.922,1.922,0,0,1,.119.918Z" transform="translate(-336.194 -471.649)" fill="#464353"/><path d="M608.644,520.794a3.185,3.185,0,0,1-.967,1.723A11.266,11.266,0,0,0,606.321,524a11.924,11.924,0,0,1-1.247,2.139,3.419,3.419,0,0,1-.756.539,5.27,5.27,0,0,1-.973.448,7.261,7.261,0,0,1-2.749.149,2.471,2.471,0,0,1-.873-.168,2.628,2.628,0,0,1-.363-.223,1.733,1.733,0,0,1-.567-.567.567.567,0,0,1-.055-.412.967.967,0,0,1,.263-.4,6.238,6.238,0,0,1,.665-.6,3.981,3.981,0,0,0,.865-.756,2.442,2.442,0,0,0,.335-.756,6.714,6.714,0,0,0,.244-1.446,4.581,4.581,0,0,1,.1-.967c.14-.5.51-.945.469-1.461a.364.364,0,0,1,.019-.221.308.308,0,0,1,.174-.108,3.077,3.077,0,0,1,.9-.21,1.052,1.052,0,0,1,.839.329c.128.155.214.378.4.438a.64.64,0,0,0,.287.011,2.407,2.407,0,0,0,1.323-.406,1.65,1.65,0,0,0,.548-1.2c0-.172-.078-.352.189-.378.2-.026.359.189.461.321a4.477,4.477,0,0,1,.884,1.61.475.475,0,0,1,.168-.032.731.731,0,0,1,.6.308A1.2,1.2,0,0,1,608.644,520.794Z" transform="translate(-446.396 -442.271)" fill="#514e7f"/><path d="M608.951,528.833a3.185,3.185,0,0,1-.967,1.723,11.258,11.258,0,0,0-1.355,1.482,11.933,11.933,0,0,1-1.247,2.139,3.421,3.421,0,0,1-.756.539,5.266,5.266,0,0,1-.973.448,7.259,7.259,0,0,1-2.749.149,2.475,2.475,0,0,1-.873-.168,2.635,2.635,0,0,1-.363-.223,1.732,1.732,0,0,1-.567-.567,1.381,1.381,0,0,1,.567-.136c.408.023.707.408,1.1.527.557.168,1.113-.225,1.678-.359.368-.087.756-.064,1.121-.189a2.77,2.77,0,0,0,.83-.5,4.221,4.221,0,0,0,.886-.854,5.484,5.484,0,0,0,.52-1.037,14.826,14.826,0,0,1,1.051-2.01,1.423,1.423,0,0,1,.214-.28,3,3,0,0,1,.289-.21,2.2,2.2,0,0,0,.667-1.217,2.131,2.131,0,0,1,.149-.406.732.732,0,0,1,.6.308A1.2,1.2,0,0,1,608.951,528.833Z" transform="translate(-446.703 -450.31)" fill="#464353"/><path d="M556.62,320.79" transform="translate(-412.25 -282.514)" fill="#464353"/><path d="M477.628,332.57a5.3,5.3,0,0,1-.406,2.874,22.274,22.274,0,0,0-.9,4.327,3.745,3.745,0,0,1-.223,1.094c-.14.316-.378.582-.54.882a4.432,4.432,0,0,0-.338,2.657c.064.6.161,1.189.28,1.774a4.487,4.487,0,0,1,.115,2.164c.351-.077.59.378.567.735a1.961,1.961,0,0,0,.034,1.064c.435.159.438.756.425,1.219a10.251,10.251,0,0,0,.3,2.381q.986,4.743,2.094,9.459c1.6.5,3.462,1.011,4.985.325a1,1,0,0,0,.631-.635,1.107,1.107,0,0,0-.06-.488l-.722-2.627a4.822,4.822,0,0,1-.259-1.942c.07-.486.282-1.009.043-1.438-.081-.147-.21-.263-.3-.4-.378-.554-.18-1.294-.149-1.965a1.558,1.558,0,0,0-.03-.45,2.245,2.245,0,0,0-.215-.493,7.543,7.543,0,0,1-.831-3.753.928.928,0,0,0-.066-.489,1.586,1.586,0,0,1-.123-.2.548.548,0,0,1,.04-.361,3.307,3.307,0,0,1-.582-.567.814.814,0,0,0,.14-1.274.425.425,0,0,0,.2-.731c-.093-.064-.215-.093-.282-.189-.1-.14-.019-.334.064-.484l.44-.8c.329-.591.4-1.323.756-1.89a14.162,14.162,0,0,0,1.164-2.657l1.272-3.509.856.743a2.706,2.706,0,0,1,.7.8,3.459,3.459,0,0,1,.229.96c.314,1.9,1.512,3.556,1.956,5.433a3.579,3.579,0,0,0,.4,1.213,2.644,2.644,0,0,1,.231.348,1.843,1.843,0,0,1,.1.576,2.689,2.689,0,0,0,1.134,1.927c.421.289.945.488,1.173.945a1.761,1.761,0,0,0,.189.4c.2.246.644.274.731.582.049.172-.042.378.055.529a.5.5,0,0,0,.21.157l1.23.614c1.376.688,2.079,2.268,3.093,3.418a7.369,7.369,0,0,1,.926,1.224c.438.784.641,1.769,1.381,2.268a2.09,2.09,0,0,1,.537.4c.232.306.147.735.168,1.121s.316.845.682.728a2.689,2.689,0,0,0,0,1.427,7.18,7.18,0,0,0,4.357-1.765,1.719,1.719,0,0,0,.709-1.19.427.427,0,0,0-.053-.236.674.674,0,0,0-.278-.21c-1.151-.624-1.5-2.069-2.079-3.243a28.1,28.1,0,0,0-1.89-2.889c-1.368-2.069-2.3-4.573-4.371-5.939a2.974,2.974,0,0,1-1.213-1.064c-.127-.278-.142-.6-.242-.882a.766.766,0,0,0-.646-.567,3.962,3.962,0,0,0,.147-1.372,1.733,1.733,0,0,0-.068-.591,2.877,2.877,0,0,0-.3-.586,5.619,5.619,0,0,1-.778-3.023,4.958,4.958,0,0,0-.053-1.631c-.083-.263-.229-.5-.329-.756a4.724,4.724,0,0,1-.236-1.421l-.113-1.816a8.935,8.935,0,0,0-.234-1.8c-.378-1.41-.756-7.315-2.05-7.98s-3.518,3.879-4.975,3.968a6.479,6.479,0,0,0-1.89.365,9.206,9.206,0,0,0-2.574,1.7l-2.679,2.25A9.872,9.872,0,0,1,477.628,332.57Z" transform="translate(-346.185 -284.289)" fill="#464353"/><path d="M258.174,361.78v-2.347a6.515,6.515,0,0,0-6.515-6.513H158.975a6.515,6.515,0,0,0-6.515,6.513v4.327Z" transform="translate(-84.46 -308.573)" fill="#33323d"/><path d="M323.363,276.261s-.265,16.413,2.645,21.814,4.157,28.894,4.157,28.894,30.506,3.156,51.764-3.779,66.491-9.771,66.491-9.771L440.8,262.042s-37.658-2.415-59.08,7.8S323.363,276.261,323.363,276.261Z" transform="translate(-223.064 -234.666)" fill="#8dd070"/><path d="M323.363,276.261s-.265,16.413,2.645,21.814,4.157,28.894,4.157,28.894,30.506,3.156,51.764-3.779,66.491-9.771,66.491-9.771L440.8,262.042s-37.658-2.415-59.08,7.8S323.363,276.261,323.363,276.261Z" transform="translate(-223.064 -234.666)" opacity="0.1"/><path d="M358.314,297.827s-.954,13.543,1.44,17.87,2.506,23.645,2.506,23.645,27.454,1.274,46.983-5.374,60.567-10.96,60.567-10.96l-4.664-42.015s-33.956-.35-53.774,9.008S358.314,297.827,358.314,297.827Z" transform="translate(-251.264 -250.236)" fill="#8dd070"/><ellipse cx="7.128" cy="15.287" rx="7.128" ry="15.287" transform="translate(148.955 46.581) rotate(-7.1)" opacity="0.1"/><path d="M374.607,130.66s-36.585,9.259-53.837,25.557-53.57,24.015-53.57,24.015,4.784,15.7,9.21,19.949,12.819,26.228,12.819,26.228,30-6.36,48.1-19.489,60.291-29.71,60.291-29.71Z" transform="translate(-177.519 -128.311)" opacity="0.2"/><path d="M264.29,167.8s4.783,15.7,9.2,19.95,12.819,26.226,12.819,26.226,30-6.358,48.109-19.487,60.29-29.7,60.29-29.7L371.695,118.23s-36.583,9.259-53.835,25.557S264.29,167.8,264.29,167.8Z" transform="translate(-175.159 -118.23)" fill="#8dd070"/><path d="M264.29,167.8s4.783,15.7,9.2,19.95,12.819,26.226,12.819,26.226,30-6.358,48.109-19.487,60.29-29.7,60.29-29.7L371.695,118.23s-36.583,9.259-53.835,25.557S264.29,167.8,264.29,167.8Z" transform="translate(-175.159 -118.23)" opacity="0.1"/><path d="M308,190.308s3.248,13.184,6.855,16.566,9.637,21.73,9.637,21.73,26.519-7.215,43.066-19.535,54.286-29,54.286-29L404.515,141.5s-32.424,10.085-48.415,25.073S308,190.308,308,190.308Z" transform="translate(-210.609 -137.103)" fill="#8dd070"/><ellipse cx="7.128" cy="15.287" rx="7.128" ry="15.287" transform="translate(136.969 39.384) rotate(-24.97)" opacity="0.1"/><path d="M260.7,383.792v65.191a5.637,5.637,0,0,1-5.639,5.637H158.125a5.637,5.637,0,0,1-5.635-5.637V377.22c2.778,1.032,2.778,1.032,5.635.945h96.936A5.639,5.639,0,0,1,260.7,383.792Z" transform="translate(-84.484 -328.281)" opacity="0.1"/><path d="M260.7,388.174v65.191A5.639,5.639,0,0,1,255.061,459H158.125a5.637,5.637,0,0,1-5.635-5.637V381.6c2.778,1.03,2.778,1.03,5.635.945h96.936A5.639,5.639,0,0,1,260.7,388.174Z" transform="translate(-84.484 -331.834)" fill="#504f60"/><path d="M592.164,543.936v20.848H571.945a10.424,10.424,0,1,1,0-20.849Z" transform="translate(-416.224 -463.494)" opacity="0.1"/><path d="M593.624,541v20.852H573.4a10.424,10.424,0,1,1,0-20.849Z" transform="translate(-417.408 -461.113)" fill="#33323d"/><circle cx="4.065" cy="4.065" r="4.065" transform="translate(152.902 86.803)" opacity="0.1"/><circle cx="4.065" cy="4.065" r="4.065" transform="translate(153.178 86.251)" fill="#13b3f2"/></g></svg>